<svg width="140" height="144" fill="none" xmlns="http://www.w3.org/2000/svg"><path d="m131.849 47.996-6.163-22.789-25.354 6.896-2.217-14.371-4.68 9.308c-.439.004-.877-.01-1.314-.04L78.113 0l-20.84 10.887 13.14 3.114-14.862 7.764-2.981-.486c-1.22-.922-2.676-1.674-4.342-2.235l-16.196-5.465-6.057-8.567-12.713 38.172L0 48.559l8.996 5.516 8.118 20.153-2.652 10.238 14.578-5.908-13.473 10.651 10.18 2.775 13.397 17.075.122 4.448c-.11.152-.223.291-.324.447-1.566 2.297-2.583 4.699-3.013 7.15a17.25 17.25 0 0 0 .233 7.217c.578 2.3 1.615 4.488 3.084 6.505 1.433 1.968 3.265 3.725 5.438 5.226 2.517 1.738 5.02 2.899 7.447 3.454 2.466.57 4.836.645 7.04.233 1.065-.197 2.108-.5 3.113-.905a15.49 15.49 0 0 0 2.946-1.581 17.274 17.274 0 0 0 4.468-4.476c2.159-3.166 3.252-6.344 3.237-9.439a14.546 14.546 0 0 0-.067-1.355l3.35 1.314-2.212 3.244 10.147-.404 17.6-.706-6.454-8.016-.179-4.496.358-.014 7.654 2.875-.368-8.999 3.444 3.56.545 1.374-2.633 9.951 29.535-11.8a7.449 7.449 0 0 0 1.671-.454c1.916-.776 3.34-2.214 4.113-4.152.743-1.885.75-3.855.01-5.694a7.66 7.66 0 0 0-1.61-2.478 7.57 7.57 0 0 0-2.42-1.653 7.914 7.914 0 0 0-2.762-.614 7.38 7.38 0 0 0-3.288.666l-1.478-3.727a7.51 7.51 0 0 0 1.731-.46c1.747-.708 3.069-1.967 3.845-3.492l.795-3.192c.01-1-.179-1.99-.555-2.916-1.152-2.86-3.814-4.57-6.694-4.576l1.038-16.436 5.254-1.43-2.808-2.249c.195-.343.385-.692.574-1.07.88-1.747 1.329-3.781 1.324-6.049l.006-.002c.001-1-.197-1.99-.583-2.913a7.623 7.623 0 0 0-1.6-2.38 7.863 7.863 0 0 0-2.397-1.634 7.7 7.7 0 0 0-3.054-.63 7.77 7.77 0 0 0-2.397.365l-1.704-6.304 11.183 7.605Z" fill="#000"/><path d="M66.423 121.545c1.606 1.887 2.412 4.008 2.422 6.363.01 2.352-.86 4.809-2.608 7.366a13.425 13.425 0 0 1-3.52 3.524 12.084 12.084 0 0 1-4.675 1.918c-1.72.321-3.576.253-5.566-.204-1.987-.457-4.057-1.426-6.2-2.905-1.842-1.269-3.36-2.726-4.56-4.371-1.195-1.643-2.028-3.389-2.491-5.24-.466-1.846-.524-3.741-.183-5.683.342-1.941 1.153-3.85 2.433-5.725.415-.609.847-1.149 1.3-1.619a24.9 24.9 0 0 1 1.326-1.291c.432-.391.829-.749 1.184-1.083.357-.331.646-.661.873-.991.189-.278.335-.624.432-1.044.1-.416.103-.749.015-.997l9.953 6.862a14.908 14.908 0 0 0-2.938-.795 13.434 13.434 0 0 0-3.166-.174 9.025 9.025 0 0 0-2.925.693c-.917.395-1.644.984-2.177 1.766a4.881 4.881 0 0 0-.848 2.546c-.045.938.166 1.93.637 2.98.47 1.05 1.215 2.135 2.238 3.248 1.02 1.114 2.34 2.226 3.957 3.341 1.36.939 2.705 1.68 4.026 2.217 1.321.538 2.551.856 3.691.953 1.141.097 2.177-.037 3.111-.397.935-.36 1.703-.984 2.31-1.871.968-1.417 1.46-2.831 1.472-4.237.012-1.407-.458-2.904-1.414-4.495l1.891-.655Z" fill="#fff"/><path d="M81.326 103.384c.465 2.225.582 4.336.347 6.331-.238 1.997-.783 3.783-1.638 5.363a12.359 12.359 0 0 1-3.45 4.003c-1.441 1.087-3.15 1.844-5.127 2.257-1.976.417-3.844.418-5.602.005a12.318 12.318 0 0 1-4.766-2.268c-1.418-1.099-2.636-2.513-3.66-4.244-1.02-1.733-1.765-3.711-2.232-5.937-.474-2.256-.592-4.381-.354-6.377.237-1.997.783-3.784 1.64-5.364a12.08 12.08 0 0 1 3.456-3.98c1.448-1.075 3.157-1.82 5.133-2.237 1.975-.417 3.841-.424 5.597-.025a12.044 12.044 0 0 1 4.762 2.248c1.417 1.098 2.635 2.512 3.656 4.245 1.016 1.73 1.763 3.723 2.238 5.979v.001ZM64.174 107c.36 1.713.775 3.251 1.25 4.614.474 1.361.987 2.498 1.54 3.418.552.921 1.14 1.588 1.758 2.008.62.42 1.26.559 1.915.42.66-.141 1.186-.526 1.584-1.16.397-.634.674-1.484.823-2.551.152-1.068.171-2.319.056-3.756-.115-1.437-.352-3.01-.713-4.727-.366-1.745-.786-3.296-1.26-4.657-.475-1.362-.996-2.5-1.561-3.415-.57-.917-1.162-1.586-1.782-2.002-.617-.42-1.26-.559-1.915-.42-.66.141-1.187.526-1.584 1.16-.397.635-.663 1.484-.802 2.55-.135 1.064-.147 2.314-.031 3.75.116 1.433.356 3.023.722 4.768Z" fill="#fff"/><path d="m98.43 102.104-8.027.321.283 6.954 4.723-.189 3.109-1.461.297 7.276-3.219-1.206-4.722.188.382 9.347 2.66 3.308-13.294.533 2.384-3.508-.922-22.61-2.66-3.308 21.963-.88.354 8.659-3.312-3.424Zm24.114-14.696-3.228-2.75-22.483-1.463-3.55 2.31L94.699 63.2l8.61.56-3.727 2.946-.526 8.326 6.916.45.302-4.784-1.131-3.212 7.235.47-1.526 3.04-.303 4.784 7.556.493.52-8.33-3.325-3.404 8.657.564-1.412 22.305Z" fill="#fff"/><path d="m109.028 120.155 1.087-4.107-8.351-21.027-3.602-2.233 20.67-8.259 3.198 8.05-4.252-2.122-7.714 3.082 2.568 6.468 4.434-1.771 2.404-2.398 2.688 6.765-3.389-.083-4.434 1.771 2.805 7.065 7.714-3.082 1.632-4.474 3.216 8.095-20.674 8.26ZM77.531 73.411l-1.83 7.851 6.747 1.596 1.076-4.621-.573-3.401 7.059 1.67-2.018 2.79-1.076 4.62 9.07 2.145 3.883-1.686-3.034 13.01-2.733-3.25-21.936-5.187-3.882 1.685 5.01-21.49 8.398 1.985-4.161 2.283Zm-35.37 6.566-6.728 5.32 4.579 5.836L43.972 88l1.774-3.22 4.79 6.104-3.53.976-3.96 3.133 6.157 7.846 4.357 1.188-11.154 8.822-.13-4.531L27.39 89.343l-4.358-1.189L41.446 73.59l5.7 7.266-4.985-.878Z" fill="#fff"/><path d="m60.047 93.193-.937-4.435-17.998-15.95-4.536-.416 9.614-10.943 1.007 4.432 17.997 15.95 4.467.419-9.614 10.943Z" fill="#fff"/><path d="M76.883 46.997c.271 1.15.357 2.248.25 3.3a8.72 8.72 0 0 1-.793 2.92 8.2 8.2 0 0 1-1.66 2.339 8.52 8.52 0 0 1-2.288 1.604l.08.337a3.68 3.68 0 0 1 1.451.288 9.64 9.64 0 0 1 2.612 1.58c.337.291.577.518.716.69l2.85 3.972c.523.653 1.148 1.092 1.872 1.324.724.232 1.553.12 2.486-.337a4.01 4.01 0 0 1-.726 1.613 5.36 5.36 0 0 1-1.297 1.219 9.282 9.282 0 0 1-1.63.866c-.583.24-1.127.42-1.634.539-1.557.37-2.91.464-4.059.281-1.15-.182-2.207-.883-3.165-2.104l-4.163-5.483c-.388-.513-.918-.91-1.588-1.19-.669-.28-1.307-.345-1.91-.202l1.72 7.274 3.457 2.918-13.86 3.29 1.782-4.163-5.553-23.495-3.456-2.918 12.957-3.075c1.871-.446 3.671-.635 5.398-.575 1.724.065 3.284.376 4.672.939 1.39.562 2.562 1.372 3.517 2.424.956 1.05 1.61 2.324 1.962 3.825Zm-8.849 2.353c-.294-1.244-.734-2.218-1.317-2.92-.587-.701-1.234-1.214-1.945-1.533a4.896 4.896 0 0 0-2.19-.439c-.75.028-1.412.158-1.995.398l2.649 11.198a5.642 5.642 0 0 0 2.243-.406 4.371 4.371 0 0 0 1.735-1.27c.47-.567.792-1.268.965-2.098.164-.838.119-1.814-.145-2.93Z" fill="#fff"/><path d="M101.634 52.518c.266 1.718.136 3.239-.383 4.564a9.623 9.623 0 0 1-2.293 3.44 12.031 12.031 0 0 1-3.503 2.333 15.812 15.812 0 0 1-3.979 1.188c-1.096.17-2.12.27-3.076.3a57.63 57.63 0 0 1-2.62.033c-.793-.009-1.532-.02-2.208-.032-.68-.012-1.277.022-1.79.103-.227.036-.465.155-.712.36a2.824 2.824 0 0 0-.612.69L78.262 51.26a12.79 12.79 0 0 0 1.953 3.505 15.405 15.405 0 0 0 2.78 2.778c1.011.772 2.042 1.36 3.094 1.761 1.051.4 2.046.531 2.98.387.592-.09 1.175-.223 1.748-.395a6.059 6.059 0 0 0 1.46-.648c.42-.263.743-.596.96-.993.219-.398.287-.873.203-1.423a4.514 4.514 0 0 0-1.05-2.303c-.566-.658-1.288-1.218-2.168-1.681-.879-.46-1.89-.852-3.027-1.173a38.8 38.8 0 0 0-3.646-.83c-1.937-.361-3.641-1.177-5.109-2.445-1.466-1.265-2.388-3.112-2.762-5.543-.21-1.36-.094-2.637.35-3.835.442-1.196 1.135-2.282 2.075-3.255.94-.973 2.093-1.791 3.46-2.45 1.366-.657 2.873-1.115 4.517-1.368 1.711-.265 3.293-.325 4.75-.189 1.457.14 2.686.134 3.687-.023.227-.036.465-.154.712-.359.248-.205.437-.434.563-.683l1.801 11.664a8.226 8.226 0 0 0-1.818-2.628 12.49 12.49 0 0 0-2.661-2.003 11.326 11.326 0 0 0-3.028-1.173c-1.044-.236-2.017-.285-2.921-.146-1.162.18-2.15.566-2.969 1.155-.818.593-1.163 1.291-1.037 2.101.096.617.501 1.116 1.22 1.503.72.386 1.607.739 2.665 1.055 1.055.317 2.218.636 3.491.95a28.97 28.97 0 0 1 3.7 1.196c2.078.842 3.742 1.934 4.99 3.284 1.252 1.34 2.054 3.165 2.409 5.466ZM41.34 57.813c1.408 3.495 1.286 6.597-.37 9.302-1.654 2.705-4.675 4.947-9.061 6.725l-12.573 5.096 1.137-4.385-9.017-22.389-3.854-2.361L19.4 45.019a43.765 43.765 0 0 1 3.794-1.326c1.378-.417 2.713-.667 4.001-.746 1.288-.079 2.446.07 3.48.445 1.031.38 1.774 1.13 2.227 2.254.23.558.328 1.162.288 1.765a5.326 5.326 0 0 1-.41 1.732 5.918 5.918 0 0 1-.98 1.563 7.112 7.112 0 0 1-1.42 1.264l.074.183c.57-.16 1.356-.215 2.364-.16 1.007.05 2.05.283 3.132.694 1.081.411 2.111 1.026 3.092 1.85.98.811 1.746 1.905 2.298 3.276Zm-16.705-7.926a2.032 2.032 0 0 0-.791-.98 2.985 2.985 0 0 0-1.207-.438 3.559 3.559 0 0 0-1.412.095 6.06 6.06 0 0 0-1.428.58l1.891 4.695c1.115-.381 1.965-.93 2.555-1.646.592-.714.724-1.483.393-2.306Zm8.303 11.701a7.794 7.794 0 0 0-1.414-2.267 6.447 6.447 0 0 0-2.148-1.596c-.82-.376-1.736-.552-2.747-.53-1.01.022-2.09.318-3.233.886l5.252 13.04c1.209-.489 2.187-1.098 2.933-1.825.745-.727 1.273-1.515 1.58-2.366a6.554 6.554 0 0 0 .383-2.648 8.37 8.37 0 0 0-.606-2.694Z" fill="#fff"/><path d="m120.281 36.606-4.677 1.27 5.804 21.455 3.559 2.854-13.84 3.762 1.681-4.278-5.804-21.455-4.676 1.27-2.621 5.5-2.645-9.78 25.607-6.961 2.644 9.78-5.032-3.417Zm-90.992-19.38 17.318 5.836c1.733.583 3.118 1.39 4.153 2.412 1.035 1.023 1.786 2.131 2.248 3.326a9.667 9.667 0 0 1 .677 3.623c-.012 1.224-.18 2.316-.5 3.28l-.869 2.612c-.516 1.554-1.191 2.934-2.026 4.14-.83 1.206-1.834 2.175-3.007 2.9-1.172.728-2.52 1.156-4.042 1.28-1.523.126-3.214-.124-5.071-.75l-16.566-5.587-4.291 1.404 4.643-13.937 2.583 3.724L41.484 37.2c1.115.376 2.071.577 2.873.606.801.03 1.476-.091 2.027-.352a3.281 3.281 0 0 0 1.341-1.155c.34-.507.63-1.115.868-1.83a6.41 6.41 0 0 0 .344-1.88 3.375 3.375 0 0 0-.415-1.695c-.287-.529-.745-1.021-1.368-1.473-.623-.452-1.448-.851-2.469-1.194l-17.135-5.78-4.29 1.402 3.432-10.3 2.597 3.676Zm106.328 88.27c.392.973.387 1.963-.014 2.975-.404 1.014-1.102 1.721-2.1 2.125a3.564 3.564 0 0 1-1.503.263 3.877 3.877 0 0 1-1.456-.337 4.378 4.378 0 0 1-1.24-.85 3.596 3.596 0 0 1-.856-1.271 3.61 3.61 0 0 1-.264-1.51c.017-.505.12-1.004.303-1.475.188-.469.464-.896.814-1.258a3.585 3.585 0 0 1 1.264-.859 3.58 3.58 0 0 1 1.503-.263c.509.02 1.009.131 1.478.329.465.2.886.488 1.241.85.357.368.639.803.83 1.281Z" fill="#fff"/><path d="m81.679 28.131-2.24-4.32-19.624 10.253-2.011 4.102-6.632-12.784 4.522.742 19.623-10.252-2.24-4.32-5.91-1.398 8.942-4.673L88.377 29.13 79.434 33.8l2.245-5.669Zm46.624 26.315c-.003 1.704-.318 3.178-.941 4.421-.622 1.244-1.276 2.21-1.964 2.894a.8.8 0 0 1-.589.243.499.499 0 0 1-.392-.173c-.099-.117-.116-.288-.048-.517.098-.263.203-.582.319-.957.115-.378.173-.711.173-1.006.001-.328-.063-.608-.193-.838-.13-.23-.423-.313-.879-.25-1.013.127-1.844-.196-2.497-.968-.651-.771-.975-1.732-.971-2.881.004-1.05.38-1.958 1.132-2.725.751-.767 1.698-1.15 2.842-1.145a3.96 3.96 0 0 1 1.615.326 4.14 4.14 0 0 1 1.271.863 3.774 3.774 0 0 1 1.122 2.713Zm1.575 33.19c.777 1.929-.121 4.055-2.081 4.85-1.939.785-4.098-.102-4.875-2.03-.76-1.887.179-4.03 2.117-4.816 1.964-.796 4.079.11 4.839 1.996Zm-6.086 2.467c.61 1.515 2.21 2.264 3.737 1.645 1.486-.602 2.095-2.246 1.493-3.742-.609-1.513-2.196-2.293-3.703-1.682-1.508.611-2.128 2.286-1.527 3.779Zm2.803.936-.784.318-1.371-3.403c.284-.189.701-.403 1.259-.629.641-.26.97-.273 1.277-.227.244.07.499.282.632.612.15.372-.022.78-.383 1.073l.017.041c.378-.008.665.162.952.579.311.478.459.66.592.751l-.845.343c-.152-.084-.341-.369-.602-.721-.214-.35-.485-.43-.918-.254l-.369.15.549 1.364-.006.003Zm-.758-1.936.373-.152c.434-.175.726-.462.584-.814-.125-.31-.435-.427-.933-.226-.146.057-.286.13-.416.218l.392.974Z" fill="#fff"/></svg>