<svg width="30" height="30" fill="none" xmlns="http://www.w3.org/2000/svg"><path fill-rule="evenodd" clip-rule="evenodd" d="M15 0c-4.074 0-4.584.018-6.184.09C3.37.34.341 3.362.091 8.815.018 10.416 0 10.926 0 15s.018 4.585.09 6.185c.25 5.448 3.272 8.475 8.725 8.725 1.601.073 2.111.09 6.185.09s4.585-.017 6.185-.09c5.443-.25 8.478-3.273 8.724-8.725.074-1.6.091-2.111.091-6.185s-.017-4.584-.09-6.184C29.665 3.374 26.639.341 21.186.091 19.585.018 19.074 0 15 0Zm0 2.704c4.005 0 4.48.015 6.063.087 4.065.185 5.963 2.114 6.148 6.15.073 1.58.087 2.055.087 6.06 0 4.007-.015 4.48-.087 6.062-.186 4.03-2.08 5.963-6.148 6.148-1.583.073-2.055.088-6.063.088-4.005 0-4.48-.015-6.061-.088-4.075-.186-5.964-2.123-6.149-6.15-.072-1.58-.087-2.055-.087-6.06 0-4.006.016-4.48.087-6.062.186-4.034 2.08-5.964 6.149-6.149 1.582-.071 2.056-.086 6.061-.086ZM7.297 15a7.703 7.703 0 1 1 15.406 0 7.703 7.703 0 0 1-15.406 0ZM15 20a5 5 0 1 1 0-10 5 5 0 0 1 0 10Zm6.206-13.007a1.8 1.8 0 1 1 3.601.002 1.8 1.8 0 0 1-3.6-.002Z" fill="#333"/></svg>