<svg width="314" height="287" fill="none" xmlns="http://www.w3.org/2000/svg"><path fill-rule="evenodd" clip-rule="evenodd" d="M236.619 136.652c2.711-.024 5.49 2.673 7.444 4.259-5.083-3.399-13.133-3.276-18.961-4.095-5.671-.797-11.301-1.994-16.776-3.714-.12-.036-12.26-4.012-8.149-6.294 11.372-6.379 25.455 10.408 36.442 9.844Zm-78.907-52.323c2.137 5.24 11.6 30.906 2.403 32.739-7.319 1.457-13.598-14.161-13.992-19.38-.649-8.69-.252-17.362-1.464-26.041 5.095 3.906 10.514 6.39 13.053 12.682Zm-89.377 158.73c-3.51 4.335-7.056 8.666-10.874 12.733 4.01-4.97 7.836-9.965 12.344-14.499l-1.47 1.766ZM304.173 42.902c-1.925-2.483-9.445.55-11.598 1.037-5.905 1.332-12.297 2.517-17.695.18-4.631-1.164 2.865-9.194 4.038-12.266.823-2.154 2.539-7.614 1.113-9.81-3.057-4.704-9.455.81-12.641 2.982-4.666 3.184-6.596 5.245-5.789-.598.869-6.281 7.452-16.86.792-22.425-5.674-4.738-14.491 4.26-17.918 7.874-6.464 6.807-9.464 14.507-10.843 23.672-.322 2.136-2.796 14.771-4.968 12.545-4.333-5.569-.903-13.744-4.324-19.745-1.946-3.41-4.624-5.101-6.259-8.938-1.615-3.789-3.246-10.58-8.468-10.992-3.315-.26-5.505 2.483-6.052 5.217-1.737 6.412-.43 12.185-.542 18.678-.084 4.752-3.207 8.324-2.046 13.213 1.871 7.45 4.313 15.265 5.576 23.025.397 2.432 1.739 13.505-3.024 11.34-2.682-1.219-2.404-11.58-2.587-13.401-.437-4.35-.373-8.693-2.992-12.462-1.501-2.16-3.991-2.992-5.15-4.687-3.423-5.015-3.191-13.515-6.018-19.023-2.537-4.942-9.258-16.923-15.159-18.095-8.079-1.606-5.04 9.393-4.513 14.216.586 5.34 1.483 10.21 1.009 15.42-.415 4.6-.086 8.328 1.678 12.796 3.257 8.255 8.165 15.375 12.283 22.896a.63.63 0 0 0-.03-.084c2.312 4.415 4.236 9.888 4.02 14.993-.362 8.558-3.324 4.2-5.924-1.623-3.923-8.78-6.48-18.169-10.356-26.947-1.38-3.127-3.036-6.301-5.915-8.34-1.932-1.367-4.322-1.035-5.821-1.863-5.218-2.874-24.428-35.435-32.494-25.729-4.356 5.24 6.459 16.444 8.739 20.364 3.641 6.26 7.505 10.58 7.136 18.012-2.117-1.967-5.029-.942-6.965-2.504-2.3-1.859-2.945-5.801-4.022-8.38-2.961-7.087-6.447-14.067-11.08-20.182-14.138-18.658-11.76 9.548-10.36 18.864.269 1.787.583 4.069.862 6.103.722 5.337-.519 6.203-1.282 10.92-1.297 8.025 8.164 18.613 13.053 24.362 1.507 1.776 24.757 30.586 14.564 30.345-5.139-.122-13.804-14.734-16.203-19.22-3.688-6.898-6.221-20.68-13.879-24.258-2.406-1.124-4.393.058-6.622-.829-5.207-2.065-8.74-10.218-12.507-14.033-7.666-7.764-17.085-6.685-10.672 5.911 2.54 4.985 3.8 8.311 5.359 13.736 1.78 6.188 7.367 9.377 9.94 14.798 2.124 4.481-1.183 2.084-.991 7.417.16 4.428 7.029 9.273 10.261 11.736 4.49 3.422 24.73 14.888 20.762 21.806-3.617 6.306-15.416-3.202-18.571-6.094-7.892-7.234-11.04-16.999-15.48-26.368-2.163-4.567-4.639-10.11-8.18-13.807-3.105-3.239-6.638-3.682-10.485-5.356-4.48-1.948-24.225-12.335-23.315.218.611 8.434 12.362 12.518 13.83 20.568-5.285-2.354-16.348-13.06-22.646-7.432-6.08 5.434 5.984 17.163 9.66 21.597 2.254 2.719 17.693 14.954 17.433 19.54-.272 4.787-5.813 3.073-9.014 2.437C49.406 145.145.38 133.076.597 143.068c.167 7.748 19.02 5.126 21.455 9.52.895 1.614-1.054 2.402-1.399 4.125-1.262 6.316.831 8.84 7.464 9.532-6.299 15.097 14.556 7.087 21.567 4.679 4.775-1.641 25.095-9.071 26.502 1.124.473 3.428-5.266 8.828-6.244 12.181-1.885 6.469 2.866 10.439 9.107 8.251 4.294-1.503 8.195-5.305 10.95-8.828 1.583-2.021 4.381-8.674 7.023-9.135-.264 10.951 6.124 5.289 11.95.583 4.358-3.519 15.214-13.088 21.691-9.282-5.072 7.038-12.001 12.643-17.541 19.289-6.063 7.281-12.373 14.08-19.366 20.96-13.263 13.047-26.556 27.267-38.224 41.688-5.708 7.054-11.889 13.774-18.007 20.472-2.209 2.415-16.073 13.251-11.215 17.653 6.573 5.953 17.981-16.561 22.672-19.166 22.302-25.367 46.07-49.451 67.687-75.305-.89 2.917.085 11.142 4.494 11.001-1.039 2.397-4.156 6.05-3.432 8.795 1.606 6.07 4.063.601 6.341.957 3.891.61.696 7.626-.024 10.486-3.361 13.326-3.992 27.887-4.858 41.595-.474 7.522 5.849 28.342 16.528 19.431 5.332-4.447 5.883-15.581 6.222-21.814.216-3.933-1.58-14.85 1.148-18.252 4.517 2.387 9.937 13.127 12.837 16.973 6.129 8.135 11.493 13.306 22.144 14.002 25.305 1.653-5.34-27.088-2.286-29.013 2.149-1.353 16.965 11.145 18.925 12.638 4.343 3.308 17.574 11.379 22.431 4.61 4.074-5.68-6.346-15.187-9.438-18.845-2.594-3.068-4.53-7.267-7.776-10.356-2.671-2.542-6.248-3.989-8.893-6.409-2.75-2.516-2.91-6.138-5.976-9.016-3.44-3.235-8.118-5.936-11.905-8.881-6.33-4.919-15.286-11.315-16.028-20.243 14.46 1.795 24.335 17.537 34.207 26.685 4.938 4.575 10.752 10.445 17.903 8.887 2.872-.627-.203-1.186 3.642-1.452.863-.059 2.032.446 2.868.641 5.994 1.412 11.736 3.597 17.68 5.161 3.687.971 15.516 5.287 18.821 1.74 5.993-6.434-19.883-22.598-24.457-26.182-3.461-2.709-7.624-5.026-10.89-7.839-2.998-2.581-4.006-6.025-8.038-7.925-5.22-2.461-11.289-3.306-16.731-5.153-7.32-2.486-13.414-6.131-19.507-10.816-2.524-1.94-8.649-6.115-7.325-9.627 2.131-5.64 11.739 1.567 14.461 3.111 8.061 4.577 15.604 11.869 25.572 14.878 10.311 3.115 15.607 13.247 25.101 17.783 3.43 1.638 5.361 1.794 8.977 1.127 4.023-.737 5.93-1.204 10.657-.002 4.284 1.091 24.955 7.806 23.382-1.836-.509-3.128-5.043-4.418-7.341-5.696-5.063-2.82-9.98-5.929-15.111-8.624-3.258-1.711-7.399-2.892-10.066-5.546-2.53-2.518-3.095-5.079-6.734-6.718-4.899-2.209-12.265-1.852-16.556-4.839-4.093-2.845-7.328-6.934-12.014-9.562-3.729-2.088-24.859-9.91-24.281-13.403 1.172-7.099 24.968 6.469 26.801 7.465 11.679 6.346 23.133 14.81 35.122 20.787 4.03 2.008 7.157 1.261 10.87 1.806 4.931.724 10.083 4.111 15.091 5.284 3.991.935 14.43 3.377 12.393-3.573-1.47-5.023-11.02-9.352-15.013-12.392-4.515-3.434-8.719-7.152-13.609-10.057-1.051-.626-3.369-1.417-4.14-2.281-2.131-2.397-.72-6.048-3.283-8.745 2.691 2.586 5.345 3.928 8.997 3.964.953.012 2.789-1.01 3.986-1.159 3.611-.451 7.864.759 11.48 1.169 5.08.57 30.678-.159 17.492-9.133-5.636-3.835-11.974-6.743-18.25-9.316-4.932-2.022-11.39-3.506-15.546-6.901-4.307-3.52-5.097-5.337-11.358-6.268-6.434-.955-15.512-.766-20.571-5.408-10.304-9.459 24.014-3.109 27.663-2.188 7.372 1.862 15.342 3.322 22.88 1.656 8.404-1.856 15.364-5.841 24.203-6.244 3.942-.178 16.855.227 16.629-6.106-.221-6.236-14.664-6.65-18.496-7.419-3.96-.793-8.459-1.063-12.265-2.222-3.453-1.055-6.089-3.283-9.454-4.582-9.54-3.687-17.646 1.017-27.158.575-5.022-.233-7.416-2.209-2.167-5.795 2.832-1.94 7.381-2.12 10.72-3.059 5.022-1.41 9.966-3.209 14.924-4.838 6.69-2.201 44.257-13.981 34.889-25.98Z" fill="#89B99A"/></svg>