<svg width="371" height="371" fill="none" xmlns="http://www.w3.org/2000/svg"><path fill-rule="evenodd" clip-rule="evenodd" d="M287.611 129.497c-12.479-3.974-25.489-4.908-38.421-6.303 4.121-.909 8.582-2.124 12.779-2.59 3.862-.424 6.16 1.167 9.795 2.433 6.488 2.265 13.735 5.017 19.375 7.648a115.027 115.027 0 0 0-3.528-1.188Zm-17.772 4.965c-13.691-2.558-27.708-3.113-41.379-5.788 3.389-1.037 5.31-1.941 8.913-1.598 5.354.508 10.773 1.605 16.006 2.77 7.593 1.691 15.255 3.515 22.653 5.914a147 147 0 0 0-6.193-1.298Zm.658 2.672c-.937.379-4.221-.905-5.282-1.134 1.022.195 4.683 1.376 5.282 1.134Zm-27.259-.281c-10.713-.671-21.556-1.007-32.288-.951 1.927-.72 3.767-1.622 5.644-2.464 5.133-2.301 6.025-1.935 11.149-.423 6.609 1.952 13.38 3.063 20.157 4.193a139.782 139.782 0 0 0-4.663-.354l.001-.001Zm-12.502 6.178c-14.79 1.122-29.38 2.914-44.144 4.567 3.152-1.273 6.183-2.893 9.194-4.458 4.648-2.412 8.217-2.072 13.398-2.074 5.503-.003 10.909.643 16.38 1.265 1.35.155 6.635.588 5.172.7Zm-22.789-11.238c7.897-7.668 16.955-14.813 26.236-20.786 5.89-3.791 12.296-8.072 19.218-4.785-11.448.476-26.404 10.859-33.18 19.758-.325.421-.822.713-1.161 1.127-1.272 1.544.114 1.712-.752 2.662-.101.112-4.726 2-4.112 1.748-3.138 1.294-6.349 2.381-9.491 3.657a139.822 139.822 0 0 1 3.243-3.382l-.001.001Zm44.049-18.372c-7.773 6.5-16.205 9.96-25.566 13.221 8.549-5.498 17.121-9.995 26.518-13.933-.318.237-.636.474-.952.713v-.001Zm9.671 2.23c1.62-.519 2.343-.385 2.704 1.539-4.187-.159-6.175.415-10.131 1.375a57.541 57.541 0 0 1 7.427-2.914Zm5.137 1.049c-.291-.528-.416-1.536-.619-2.051 3.108-.051 5.748.606 8.388 2.236-.874.008-7.553.779-7.769-.185Zm-126.031 72.151c22.721-2.806 44.512-3.539 67.331-1.315-17.191 1.507-34.455 4.962-51.372 8.316-13.582 2.693-27.355 4.147-40.976 6.581 2.524-2.627 4.884-5.41 7.455-7.999 4.466-4.495 11.157-4.782 17.562-5.583Zm78.115 6.691c4.102-.42 8.194-.929 12.274-1.527 4.435-.655 11.509-3.579 15.972-2.698-24.364 7.233-50.693 10.567-75.739 14.643-10.411 1.695-21.01 4.172-31.096 7.315-14.561 4.535-30.985 4.513-44.882 10.884 4.25-4.454 8.905-10.825 13.747-14.447 3.519-2.635 9.357-2.854 13.543-3.407 6.894-.909 13.821-1.616 20.733-2.36 25.159-2.711 50.279-5.771 75.448-8.403Zm-127.41 24.125a189.798 189.798 0 0 0-5.968 6.894c3.51-16.46 3.352-33.818 5.329-50.527 1.118-9.448 2.167-19.002 3.67-28.388 1.33-8.288 1.683-19.58 6.127-26.74 3.316 3.08 5.767 6.349 5.108 10.826-.847 5.758-3.327 11.291-4.48 17.003-1.296 6.419-2.174 12.952-2.975 19.45-1.232 9.994-1.52 20.16-.992 30.208.143 2.825.324 5.647.544 8.467.097 1.23.734 3.327.463 4.477-.664 2.828-4.688 5.962-6.826 8.33Zm24.502-68.531c1.948-9.249 3.135-19.995 7.187-28.665 2.248-4.818 4.411-6.533 7.77-1.329 2.398 3.714-1.369 11.866-2.556 16.534-3.367 13.245-5.145 26.835-7.373 40.303-.581 3.529-.754 7.019-1.13 10.552-.313 2.929-.232 2.755-1.919 4.96-1.085 1.425-2.796 2.635-4.104 3.885-3.429 3.277-6.906 6.511-10.299 9.826 5.163-18.472 8.484-37.32 12.424-56.066Zm254.021 42.008c-3.129-4.161-7.097-7.913-11.156-11.129-5.624-4.459-12.51-7.067-18.126-11.355-4.723-3.61-8.624-8.414-13.451-12.07-7.667-5.802-15.559-10.628-24.538-14.114 11.436 3.902 22.403 8.599 31.563 16.696.774.686 7.484 9.277 8.872 8.456.95-.554-3.076-6.772-3.915-8.221-6.19-10.647-18.893-17.46-28.931-24.299-11.337-7.722-23.716-12.055-36.633-16.326 11.735.648 21.622 3.662 31.452 10.265 4.836 3.245 9.309 7.037 14.293 10.051 4.418 2.672 8.662 5.136 12.475 8.722 4.271 4.019 7.702 8.399 10.536 13.533 1.065 1.932 6.267 13.625 6.407 6.197.07-3.66-4.553-8.875-6.424-11.52-3.155-4.455-6.814-8.468-10.644-12.348-6.515-6.594-12.733-13.438-20.466-18.641-4.398-2.961-9.004-5.306-14.036-6.997-3.886-1.308-7.875-2.246-11.953-2.708-3.872-.438-4.245-.392-7.326-2.392-2.648-1.721-4.908-3.562-7.871-4.789-3.019-1.252-5.589-1.431-7.835-3.139-2.65-2.019-3.677-4.387-7.097-5.651-3.144-1.163-6.36-.907-9.64-.645-10.848.864-21.861 3.614-30.835 10.03-7.931 5.672-13.324 14.723-17.158 23.548-2.117 4.869-.68 4.686-6.365 7.485-5.977 2.944-11.919 5.836-17.734 9.12 9.587-11.917 17.923-25.111 28.434-36.279 5.62-5.965 11.132-12.028 16.751-17.99 1.659-1.757 14.761-14.412 7.402-13.963-1.702.103-4.261 2.378-5.825 3.124-3.121 1.498-6.22 2.826-9.105 4.783-5 3.394-9.082 7.616-13.172 12.007-10.593 11.375-20.141 23.541-25.029 38.476-1.158 3.534-1.581 7.518-3.394 10.761-1.278 2.288-2.778 3.078-5.372 4.768-4.449 2.893-8.773 5.868-12.986 9.103 10.773-15.955 17.722-33.81 26.21-50.989 10.918-22.088 15.913-46.878 25.096-69.7 1.781-4.426 3.951-9.297 6.94-13.065.909-1.146 3.782-2.864 4.033-4.309.663-3.811-1.918-2.788-3.814-1.692-4.645 2.685-9.155 8.742-12.329 12.824-4.62 5.938-9.298 12.38-13.3 18.777-13.785 22.035-22.924 47.041-30.516 71.79-3.572 11.634-7.256 23.46-9.013 35.525-.848 5.825.115 5.981-4.752 9.968-5.083 4.166-9.941 8.586-14.984 12.793 4.596-9.437 7.335-21.14 10.652-31.152 3.472-10.488 7.421-20.818 10.95-31.29 5.74-17.041 10.036-34.489 14.168-51.972a851.67 851.67 0 0 0 6.133-27.96c2.418-12.03 4.877-25.921 10.269-37.018.805-1.65 4.072-9.319-.656-6.677-2.166 1.207-4.733 9.109-5.839 11.24-6.264 12.098-11.54 24.383-16.255 37.16-8.357 22.654-14.222 45.87-20.843 69.035-3.31-4.519-10.183-9.494-16.122-7.571-5.334 1.729-7.958 9.322-9.636 14.079-.186-3.291-4.224-9.429-7.371-9.639-1.789-.12-4.87 1.575-6.367 2.282-3.697 1.748-7.897 3.96-10.204 7.401-4.726 7.058-3.83 18.137-4.67 26.306-2.5 24.364-2.052 47.888.702 72.152.63 5.552 1.39 8.128-1.77 12.504-3.607 5-7.086 9.916-10.638 14.61 1.141-2.174.11-8.819.097-11.137-.037-6.21.026-12.367.349-18.572.661-12.78-.025-25.988-.668-38.776-1.326-26.348-1.206-52.36-.317-78.701.186-5.55.06-11.067.027-16.615-.014-2.29.744-7.901-2.894-6.56-1.057.39-1.834 4.486-2.14 5.525-2.835 9.577-3.724 19.938-5.022 29.774-1.18 8.946-2.257 17.907-3.004 26.897-1.436 17.271-.962 34.042-.875 51.342.074 14.251 1.619 29.744 4.253 42.891 1.236 6.166 3.383 12.828 4.008 19.042.38 3.742-1.81 5.129-4.325 8.527-2.545 3.436-5.058 6.899-7.487 10.418.234-5.392-1.302-10.967-1.663-16.363-.303-4.508-.589-8.993-.995-13.496-.323-3.546-.627-7.096-.94-10.645-1.62-18.269-3.202-36.497-6.191-54.598-4.595-27.796-9.608-56.362-9.422-84.64.037-5.396.21-10.789.273-16.187.046-4.069-.328-8.105-.351-12.168-.013-2.072.931-6.079.24-8.143-2-5.974-3.732.701-3.787 3.444-.028 1.446-.115 2.887-.137 4.332-.134 9.08-.915 18.034-1.364 27.103-.643 13.076-.068 26.087.366 39.157.474 14.237.118 28.572 1.648 42.757 1.974 18.283 5.927 36.461 8.408 54.696 1.08 7.941 2.585 15.795 3.402 23.773.762 7.457 3.409 14.787 5.02 21.675l-.008-.528c.624 2.928 1.605 4.391.715 7.078-.628 1.887-2.348 3.871-3.38 5.605-2.197 3.688-4.307 7.419-6.418 11.157 1.87-9.488-.665-21.459-2.672-30.779-2.218-10.312-4.922-20.874-8.087-30.931-2.461-7.821-4.498-15.509-5.24-23.65-.991-10.842-3.94-21.269-5.525-32.01-1.496-10.142-4.014-20.184-6.161-30.223-.484-2.26-2.642-13.07-6.154-8.194-.865 1.203.196 4.398.332 5.642.334 3.08.542 6.111.68 9.203.897 19.631 5.008 39.559 8.23 58.901 2.06 12.358 4.24 24.761 7.249 36.924 2.344 9.47 3.609 19.309 6.209 28.646 1.246 4.479 2.513 9.057 4.505 13.262 1.733 3.66 3.48 4.682 2.87 8.626-.876 5.638-5.677 11.491-7.843 16.95-1.771 4.463-3.578 8.934-5.266 13.428a445.79 445.79 0 0 0-6.637 19.097c-1.2 3.704-3.53 8.485-3.748 12.252-.332 5.722 2.906 4.085 4.607.258 1.144-2.576 2.058-5.347 3.134-7.966 7.896-19.191 15.125-39.767 26.915-56.986 4.918-7.191 18.512-8.924 26.488-11.431 19.188-6.039 39.945-6.835 59.854-9.042 16.054-1.776 31.847-3.41 47.564-7.358 2.295-.575 44.188-12.909 43.137-15.06.587 1.207-45.832 11.537-49.549 11.842-11.657.95-23.278 1.205-34.96 1.699-29.223 1.237-57.966 1.939-84.518 15.746 3.35-5.27 7.358-15.218 13.24-17.259 11.336-3.938 23.283-6.481 34.703-10.321 11.872-3.986 24.064-6.656 36.005-10.35 11.928-3.69 23.83-7.513 35.939-10.616 12.172-3.119 24.746-6.369 37.394-5.968 4.868.155 9.75.586 14.597 1.044 1.831.173 16.402 2.867 8.523-.479-5.102-2.169-11.782-2.336-17.248-3.132-6.267-.91-12.275-1.718-18.61-1.668-13.794.106-27.651 3.34-40.984 6.541-15.957 3.827-32.569 7.625-47.802 13.784-13.96 5.645-27.992 11.065-41.953 16.64 2.539-3.886 5.239-7.655 7.88-11.472 1.283-1.857 2.636-4.87 4.458-6.138 2.78-1.937 8.628-2.44 11.857-3.515 12.99-4.319 26.04-9.392 39.351-12.605 21.403-5.168 43.315-8.373 64.85-12.972 12.569-2.681 25.878-5.047 38.729-4.819 4.834.088 9.675-.088 14.421.933 1.679.36 3.793 1.29 5.523 1.486 5.174.58 1.335-1.909-1.804-2.997-24.879-8.613-52.302-1.727-77.38 1.778-16.585 2.315-32.959 4.677-48.794 10.382-14.591 5.255-28.541 12.264-43.375 16.879 3.888-5.525 7.354-11.246 13.566-14.286 6.874-3.361 14.119-4.823 21.621-6.097 15.597-2.658 31.09-6.06 46.737-8.375 14.375-2.123 28.723-4.007 42.972-6.905 13.873-2.826 27.666-4.477 40.907-9.817 4.192-1.691 9.275-4.622 13.751-4.878 5.802-.331 12.827 1.407 18.516 2.269 13.856 2.095 28.239 4.255 41.048 10.12 12.568 5.756 21.102 14.802 30.723 24.259 3.031 2.984 6.014 6.018 9.036 9.01.673.667 4.69 5.675 5.518 5.739 5.124.384-4.542-9.772-6.21-11.853-11.527-14.381-24.001-26.375-40.959-34.21-14.452-6.678-29.561-11.021-45.321-13.245.04-2.849 11.651-2.991 11.97-5.942.421-3.935-7.704.003-9.314.487-3.058.918-6.032 2.066-9.105 2.935-7.055 1.994-14.862-.462-22.029-1.382-8.642-1.104-17.397-1.828-26.088-2.351-28.77-1.735-56.374-.781-84.319 6.928 5.015-4.392 10.246-8.566 15.546-12.608 2.063-1.573 3.636-3.014 5.974-3.752 3.948-1.247 8.636-.69 12.752-1.093 16.272-1.587 32.47-3.371 48.832-3.873 26.926-.826 55.001 4.007 80.537 12.567 12.457 4.178 24.679 8.241 35.497 15.931 2.504 1.778 4.731 3.819 7.007 5.874.941.849 6.686 7.026 6.978 6.993 2.491-.266-9.062-13.051-10.741-14.684-22.562-21.929-51.837-26.914-81.73-31.317-31.26-4.606-62.636-2.16-93.433 4.789 6.15-3.837 12.194-10.413 19.098-12.644 5.244-1.696 11.9-1.374 17.206-1.918 15.388-1.582 31.517 1.105 46.938 2.197 17.421 1.232 34.344 3.467 51.187 8.108 8.618 2.375 17.011 4.888 25.419 7.972 6.664 2.444 12.101 3.949 17.493 8.415 2.175 1.818 8.645 6.646 12.146 9.928 1.428 1.341 2.907 4.173 4.521 4.847 6.012 2.508-1.967-7.288-3.277-8.988 4.779 2.855 9.24 6.161 13.483 9.681.839.698 1.642 1.231 2.492 1.868.998.751 1.52 2.942 3.228 2.212 1.391-.598.897-2.031.233-2.938Z" fill="#012A32"/></svg>