<svg width="227" height="192" fill="none" xmlns="http://www.w3.org/2000/svg"><g clip-path="url(#a)"><mask id="b" style="mask-type:alpha" maskUnits="userSpaceOnUse" x="0" y="0" width="227" height="192"><path d="M48.832.242 226.69 71.96l-48.254 119.666L.578 119.908 48.832.242Z" fill="#fff"/></mask><g mask="url(#b)" fill-rule="evenodd" clip-rule="evenodd"><path d="M210.569 99.249c-.025-.017-.049-.028-.074-.049a1.03 1.03 0 0 1-.153-.165c.123.024.233.059.246.124a.135.135 0 0 1-.019.09Zm10.771-14.706.005-.19-.022-.189c-.061-.548-.448-2.379-2.813-2.902-.386-.086-.776-.164-1.164-.243l-.221-.044c-.925-.188-5.079-.956-6.356-1.147-.333-.05-.97-.162-1.706-.29-2.144-.378-3.72-.647-4.451-.69-.359-.022-.76-.074-1.182-.13a43.186 43.186 0 0 0-.769-.097c-.919-.104-1.72.08-2.518.578-.24.151-.466.322-.677.512a6.149 6.149 0 0 0-.525-.827c-.843-1.104-2.424-1.748-2.491-1.775-.615-.247-2.105-.69-2.713-.783-.557-.085-1.871-.201-2.851-.025-.759.136-2.783.88-3.679 1.636-.16.135-.313.276-.458.423a6.193 6.193 0 0 0-.489-1.009c-.86-1.419-2.197-2.041-3.131-2.387-.279-.104-.702-.263-1.201-.332-.131-.02-.623-.11-.792-.148-.091-.02-.227-.048-.606-.115-.29-.66-.591-1.315-.904-1.965l.734-.64-.804-1.87c-2.315-5.385-5.942-9.771-9.458-13.803-10.038-11.509-23.411-18.363-39.736-20.372-7.865-.968-18.771.656-29.175 4.343-4.956 1.756-16.6 6.467-20.049 12.99a62.845 62.845 0 0 0-8.42 9.27c-.802-.376-2.061-.579-3.596.499l-.045.03a7.446 7.446 0 0 1-.717.449c-.473.251-.841.41-1.14.493l-.078-.16c-1.05-2.19-2.284-4.08-3.669-5.619a47.85 47.85 0 0 0-1.99-2.082c-.719-.708-1.544-1.204-2.207-1.603l-.228-.137c-.874-.532-1.735-.818-2.495-1.072-.23-.077-.46-.153-.686-.238a16.485 16.485 0 0 0-2.763-.747c-2.482-.472-4.899-.31-7.156-.071-1.35.143-2.573.288-3.852.612-1.21.306-2.397.702-3.549 1.186-2.398 1.008-4.524 2.354-6.495 3.645-.5.328-1.082.717-1.643 1.189-.438.368-.815.75-1.147 1.088l-.313.316c-.235.232-.481.454-.725.677-.275.249-.55.5-.815.76-1.31 1.28-2.77 3.105-4.344 5.425-1.005 1.483-1.704 2.79-2.446 4.172-.198.37-.402.75-.62 1.149a31.234 31.234 0 0 0-2.689 6.604 42.178 42.178 0 0 0-.847 3.719c-.037.202-.134.661-.24 1.17-.218 1.05-.366 1.767-.425 2.143-.206 1.305-.222 2.555-.22 3.828a34.62 34.62 0 0 0 .146 3.389c.272 2.75.99 5.27 2.132 7.491a24.658 24.658 0 0 0 1.694 2.843c.732 1.051 1.471 2.071 2.462 3.002 1.909 1.792 4 2.937 5.796 3.821 2.013.991 4.24 1.644 6.802 2.001.602.083 1.204.159 1.807.221.323.033.623.033 2.46-.118a.074.074 0 0 1-.008.015l-.029.058c-.168.328-.519 1.012-.505 1.906.022 1.468.922 2.739 2.241 3.163.111.036.251.074.413.102.836.147 2.28.06 3.581-1.699l.478-.642c.625-.839 1.678-2.254 2.186-2.94.57-.772 1.052-1.528 1.519-2.26.189-.297.38-.596.578-.897.164-.251.992-1.341 1.39-1.866l.289-.381c.209.674.473 1.329.79 1.959.371.739.96 1.832 1.783 2.799.895 1.05 1.89 1.819 2.658 2.372 1.015.73 1.883 1.264 2.733 1.68.422.206 1.33.613 2.054.819l.446.132c.448.134.898.264 1.348.391a62.87 62.87 0 0 0 3.477 9.251c1.941 5.765 5.353 11.261 10.724 17.279 9.543 10.694 21.132 17.275 34.539 19.634 2.79.49 5.66.799 8.605.923 17.03.719 32.171-4.737 45.005-16.216 2.565-2.294 5.472-4.894 6.837-9.029l.008-.026a61.504 61.504 0 0 0 2.022-2.663c2.591.432 5.837.962 6.818 1.08.636.077 1.256.157 1.839.276.313.064.626.118.938.171.395.067.764.128 1.075.212.998.269 2.006.498 3.022.686.9.184 1.648.054 2.234-.168.171.187.355.362.559.516a4.51 4.51 0 0 0 1.937.827c1.619.286 3.395-.245 4.505-1.505 1.018-1.157 1.515-2.623 1.333-3.921-.157-1.119-.779-2.076-1.751-2.695a4.611 4.611 0 0 0-1.491-.612c1.279-2.193 1.967-3.629 2.046-4.273.162-1.346-.543-2.59-1.699-3.141-1.366-.794-3.287-.73-4.761 1.171-.705.74-4.391 3.256-5.465 3.785-.643.319-1.304.6-1.979.842-.475.169-.849.279-1.135.27-.491-.015-1.037-.102-1.699-.213-.247-.042-.559-.093-.88-.145l.036-.088c.107-.273.282-.597.468-.939.086-.157.171-.315.253-.473.207-.388 1.614-2.695 2.544-4.22l.636-1.044a3.3 3.3 0 0 0 .332 1.282 3.225 3.225 0 0 0 2.135 1.734c.982.243 2.033.018 2.889-.614.926-.687 1.468-1.616 1.864-2.294.071-.121.139-.24.208-.349.279-.446.562-.888.846-1.329.183-.285.366-.568.547-.855.228-.358.485-.725.758-1.114.574-.821 1.226-1.752 1.732-2.816l.021-.042c.271-.566.99-2.068.202-3.597a3.097 3.097 0 0 0-1.98-1.587 3.197 3.197 0 0 0-1.831.076l.526-.708c.212-.282.417-.569.622-.856.222-.311.444-.621.676-.924.174-.226.342-.456.512-.687.275-.378.536-.735.79-1.017.096-.109.194-.216.289-.317l.188.029c.686.108 1.374.216 2.053.341.681.12 1.352.286 2.011.496.454.148.696.265.821.338.003.111.003.252.003.366l.001.051c0 .308-.024.535-.075.692-.071.217-.144.432-.216.646a26.108 26.108 0 0 0-.596 1.913l-.044.127c-.333.942-.953 2.695.154 4.206.62.847 1.597 1.312 2.679 1.275 1.767-.06 2.727-1.408 3.087-1.916a.964.964 0 0 0 .058-.084c.518-.601.866-1.227 1.138-1.758.247-.481.615-.994 1.006-1.537.115-.161.231-.321.344-.483.413-.585.772-1.175 1.121-1.745l.196-.32c.496-.808 1.114-1.813 1.453-3.025.293-1.053.252-1.899.046-2.569.143-.001.287.006.428-.005 2.851-.218 5.164-2.503 5.265-5.217a4.432 4.432 0 0 0-1.57-3.525 4.776 4.776 0 0 0-3.975-1.035h-.001c-.104.02-.206.045-.308.075.251-.396.501-.783.758-1.154l.198-.287c.098-.142.194-.283.293-.422.185-.263.366-.53.548-.796.254-.377.495-.73.738-1.055.449-.597.841-1.193 1.22-1.77.134-.203.264-.402.395-.596.085.231.198.453.337.662a3.069 3.069 0 0 0 2.042 1.332c.568.1 2.428.227 3.526-2.039l.008-.016c.044-.075.111-.179.186-.299.768-1.225 1.241-2.025 1.263-2.998l.001-.001Z" fill="#FFFFFE"/><path d="M182.18 110.535c-5.762 32.633-36.853 54.439-69.445 48.704-32.591-5.735-54.34-36.837-48.577-69.47 5.763-32.634 36.854-54.439 69.445-48.704 32.591 5.734 54.34 36.837 48.578 69.47" fill="#fff"/></g><path fill-rule="evenodd" clip-rule="evenodd" d="M133.561 41.383c-2.896-.286-5.712-.783-8.533-.798-6.174-.033-5.426-.653-4.417 5.321.023.133.171.244.341.476 4.519-.39 9.933 1.81 12.61-4.999h-.001Zm-16.262-.81-14.205 3.933c1.161 1.452 1.947 2.496 2.803 3.477.323.37.868.907 1.212.84 3.752-.734 7.484-1.573 11.376-2.418l-1.186-5.832Zm15.406 5.895c12.901 1.696 24.353 6.247 34.485 14.108-1.029-1.487-2.112-2.88-3.362-4.101-6.432-6.285-14.082-10.483-22.62-13.149-4.266-1.33-5.414-.97-8.503 3.142ZM83.15 56.62c1.694-8.815 30.248-19.672 47.027-17.636 14.963 1.816 27.911 7.895 37.928 19.441 3.481 4.012 6.863 8.174 8.967 13.11l-.739.65c-.657-.517-1.406-.953-1.96-1.566-10.963-12.143-24.555-19.312-40.709-21.614-.761-.109-2.131.036-2.273.414-.314.843-.334 2.078.08 2.846.684 1.264 1.689 2.419 2.768 3.383 3.924 3.507 7.952 6.895 11.9 10.375.864.76 1.56 1.713 2.334 2.577l-.532.681c-.604-.299-1.3-.49-1.798-.914a1298.758 1298.758 0 0 1-13.72-11.818c-2.26-1.977-4.252-4.153-3.551-7.86-2.363.036-4.438-.05-6.475.194-.433.052-1.091 1.346-1.028 2.004.371 3.87.943 7.718 1.401 11.58.093.779-.009 1.583-.022 2.375l-.803.214c-.319-.827-.784-1.627-.933-2.485a333.015 333.015 0 0 1-1.774-11.293c-.221-1.61-.803-2.407-2.553-2.034-1.283.273-2.617.29-3.904.548-1.515.305-3.422.319-4.377 1.26-.824.812-.549 2.75-.764 4.19-.32 2.15-.798 4.196-3.862 5.396 1.121-3.12 2.632-5.627 1.248-8.863l-14.071 6.432-.615-.838c.668-.647 1.233-1.494 2.021-1.907 3.231-1.695 6.53-3.26 9.807-4.87.611-.299 1.231-.58 1.848-.868-1.88-3.974-2.914-4.56-6.328-2.5-4.039 2.435-7.814 5.32-11.667 8.062-.84.596-1.529 1.407-2.286 2.12l-.585-.786Zm47.617 64.992 5.194 36.994c13.62-3.106 24.454-10.095 33.559-20.168-1.116 3.38-3.591 5.624-6.033 7.811-12.222 10.942-26.566 16.183-42.919 15.499-16.418-.685-30.135-7.314-41.065-19.575-5.126-5.752-9.424-12.038-11.127-19.879 7.128 14.329 17.015 25.83 32.054 32.346-6.565-12.873-10.76-18.794-11.628-33.28l1.041-.351c.288.766.764 1.514.838 2.3 1.226 12.937 4.706 17.479 10.82 28.824 1.695 3.145 3.924 4.928 7.518 5.729 7.463 1.66 14.902 2.42 22.521 1.527 2.055-.241 2.727-.875 2.412-3.057-1.488-10.327-2.82-20.678-4.182-31.025-.153-1.17-.147-2.363-.215-3.545l1.212-.15ZM63.055 65.79c.507 1.066.985 2.17 1.297 3.309.257.94.451 1.912.406 2.881-.012.264-.046 1.31-.08 1.594-.05.397-.112.79-.188 1.182-.083.425-.163.85-.239 1.277-.052.29-.122.727.272.808.4.083.582-.447.743-.723.272-.46.6-.833.937-1.246.3-.37.597-.74.898-1.11.734-.904 1.409-1.817 2.11-2.746.579-.767 2.398-3.32 2.585-3.857.138-.393.635-.907.216-1.285-.338-.304-.728.008-1.022.21-.321.22-.646.427-.991.609-.962.507-1.955.915-3.058.876-.465-.016-1.257-.203-1.463-.662-.173-.387-.361-.766-.546-1.147-.86-1.778-1.923-3.49-3.255-4.96a45.457 45.457 0 0 0-1.885-1.963c-.554-.542-1.281-.95-1.94-1.349-.85-.514-1.803-.742-2.723-1.085a14.086 14.086 0 0 0-2.319-.627c-2.101-.4-4.254-.272-6.37-.055-1.167.12-2.337.249-3.477.533a22.288 22.288 0 0 0-3.161 1.043c-2.159.897-4.114 2.117-6.064 3.384-.475.31-.944.623-1.38.986-.46.383-.865.822-1.291 1.242-.505.498-1.049.952-1.557 1.445-1.416 1.376-2.886 3.357-3.987 4.977-1.182 1.738-1.914 3.231-2.924 5.076a27.996 27.996 0 0 0-2.443 5.995c-.315 1.141-.575 2.3-.785 3.465-.094.522-.559 2.673-.647 3.241-.175 1.122-.182 2.25-.178 3.383a32.18 32.18 0 0 0 .141 3.114c.23 2.258.811 4.462 1.863 6.482.448.875.954 1.719 1.515 2.526.635.903 1.289 1.807 2.1 2.564 1.532 1.433 3.275 2.441 5.15 3.362 1.904.936 3.888 1.461 5.984 1.756.573.081 1.147.152 1.722.214.24.025 2.151-.136 2.305-.146.3-.019.596-.091.897-.095a2.19 2.19 0 0 1 1.538.576c.234.21.489 1.02.479 1.284-.013.338-.005.648-.112 1.259-.082.468-.303.811-.412 1.033-.1.204-.253.454-.249.689.008.44.406 1.032 1.21-.049.178-.24 1.955-2.612 2.662-3.566.737-.992 1.33-1.989 2.01-3.02.32-.488 1.757-2.341 2.123-2.836.256-.347.772-1.138.913-1.577.13-.404-.5-.7-.98-.567-.439.123-.858.591-1.216.86-.47.352-.97.669-1.466.982-.972.615-1.992 1.279-3.093 1.633a17.161 17.161 0 0 1-3.45.732c-1.199.123-2.296.236-3.498.207-1.168-.029-2.156-.03-3.294-.319-.26-.067-.865-.298-1.08-.455-.218-.158-.413-.4-.585-.606-.345-.412-.625-.877-.885-1.345a24.08 24.08 0 0 1-1.182-2.401 18.645 18.645 0 0 1-1.391-6.494c-.07-2.31.42-4.608.87-6.86.43-2.156 1.035-4.232 1.88-6.262.81-1.943 1.63-3.607 2.806-5.343.754-1.112 1.643-2.284 2.376-3.41 1.19-1.83 2.735-3.61 4.123-5.298 1.257-1.529 2.564-2.993 4.004-4.355 1.6-1.513 3.223-3.002 5.041-4.256.897-.619 1.82-1.232 2.848-1.611.462-.17.944-.347 1.436-.392a7.116 7.116 0 0 1 1.658.059c.551.079 1.15.167 1.66.395.488.217.968.466 1.428.733.728.424 1.37 1.212 1.93 1.837.602.672 1.072 1.433 1.537 2.199.414.68.823 1.36 1.193 2.065Z" fill="#000"/><path fill-rule="evenodd" clip-rule="evenodd" d="M80.495 95.49a20.5 20.5 0 0 1-1.323 3.409c-.706 1.411-1.455 2.816-2.323 4.134-.498.756-.893 1.572-1.387 2.331-.479.736-1.028 1.409-1.612 2.064-1.039 1.162-2.133 2.281-3.505 3.048-1.443.805-2.621.883-4.624.823-1.369-.222-2.996-.679-3.711-2.025-.871-1.642-.791-3.62-.494-5.399.217-1.299.487-2.618 1.02-3.83a42.253 42.253 0 0 1 2.278-4.44c1.577-2.682 3.295-5.332 5.498-7.543 1.2-1.205 2.614-2.172 4.11-2.971.743-.396 1.513-.777 2.36-.88.362-.043.756-.07 1.107.05.201.069.475.178.658.284.053.03.792.549.934.692.17.17.329.51.44.723.203.388.345.753.499 1.162.299.794.394 1.62.492 2.468.113.968.054 1.966.018 2.938-.033 1-.18 1.994-.435 2.962Zm.412 14.038c1.327-1.247 2.465-2.621 3.581-4.057.967-1.245 1.865-2.488 2.548-3.911.424-.887.867-1.8 1.213-2.72.33-.876.52-1.793.67-2.72.284-1.759.208-3.58-.308-5.287a29.11 29.11 0 0 0-1.02-2.797c-.34-.813-.792-1.555-1.305-2.274a11.075 11.075 0 0 0-1.55-1.728c-.658-.6-1.291-1.128-2.048-1.597-.767-.475-1.576-1.066-2.428-1.372-.803-.29-1.656-.543-2.497-.685a12.934 12.934 0 0 0-2.81-.182c-.445.02-.956.04-1.402.063a9.25 9.25 0 0 0-1.385.194c-1.84.377-3.68 1.11-5.34 1.979-.823.43-1.76.867-2.523 1.395-.75.52-1.442.94-2.204 1.445-1.431.947-2.73 2.108-3.872 3.39-1.019 1.144-1.891 2.167-2.587 3.409-.519.923-.828 1.858-1.142 2.806a15.482 15.482 0 0 0-.63 2.753c-.23 1.67-.402 3.322-.367 5.005.02.954.235 1.968.41 2.908.155.831.458 1.622.837 2.376.39.773.841 1.563 1.406 2.224.63.74 1.363 1.337 2.15 1.903.735.528 1.506 1.033 2.32 1.43.425.209 1.134.511 1.59.641.386.112 1.697.51 2.121.61.506.118 1.149.251 1.662.332.984.153 1.8.131 2.791.006.967-.122 1.91-.354 2.84-.637.467-.141.92-.318 1.386-.466.423-.134.848-.256 1.25-.435.324-.144.678-.304 1.013-.426.446-.163.836-.356 1.262-.564.855-.418 1.656-.938 2.43-1.488.666-.473 1.34-.963 1.938-1.523Zm63.697-13.247c.521.174.897.38 1.228.827.319.43.556.892.504 1.446-.106 1.128-.42 2.302-.751 3.382-.152.497-.361.953-.554 1.433-.073.18-.148.381-.047.565.099.181.296.237.482.158.394-.166.703-.761.934-1.099.122-.179 2.162-3.186 2.869-4.204.382-.556.783-1.098 1.203-1.627.247-.308.554-.62.689-.998.171-.484-.032-1.006-.442-1.285-.688-.468-4.455-.9-5.456-1.051-.883-.133-4.662-.791-5.674-.973-1.051-.187-2.091-.44-3.15-.584-1.096-.147-2.176-.35-3.27-.513a55.79 55.79 0 0 1-3.391-.603c-.492-.106-.974-.203-1.477-.232-.212-.012-.968-.018-1.116.18-.482.64.954.809 1.087 1.23.096.303-.194.843-.313 1.127-.184.44-.349.89-.591 1.303-.486.83-.915 1.705-1.434 2.515-.415.646-.855 1.285-1.23 1.956-.167.298-.324.602-.492.899a.301.301 0 0 0 .031-.016c-.43.653-.77 1.362-1.184 2.026-.475.762-.997 1.493-1.463 2.261a75.398 75.398 0 0 0-1.84 3.223c-.375.693-.718 1.399-1.071 2.104-.353.707-.757 1.388-1.112 2.095-.48.955-2.969 5.399-3.799 6.62-.403.593-.742 1.22-1.18 1.789-.557.727-1.331 1.087-2.175 1.378-.267.092-.558.142-.792.309-.335.24-.347.638-.009.873.303.21.706.269 1.059.344.347.076.696.145 1.042.224.882.199 8.522 1.258 8.856 1.295.194.021.387.072.58.1.247.037.529.08.766-.026.366-.164.447-.596.236-.918-.183-.28-.493-.44-.706-.689-.281-.331-.312-.755-.221-1.168.075-.339 7.971-14.232 8.007-14.297.018-.111.072-.132.162-.065.202.001.476.153.669.215.179.057.357.114.537.169.29.088.582.17.874.251.478.135.985.236 1.432.453.328.159.628.419.634.806.005.367-.088.729-.127 1.09-.035.322-.378 1.674.208 1.632.382-.027.695-.649.858-.934.182-.32.372-.635.548-.958.834-1.538 1.902-2.928 2.706-4.488.116-.223.525-.827.348-1.087-.214-.316-.685.21-.847.355-.644.576-1.29 1.205-2.059 1.608-.362.19-.779.347-1.182.415-.363.061-.694-.048-1.041-.137-.384-.098-.77-.196-1.154-.298-.584-.155-1.149-.344-1.732-.524.402-.613 2.111-3.765 2.274-4.088.501-.988 1.097-1.938 1.658-2.893.341-.58.637-1.188.944-1.787.248-.484.499-1.031.828-1.463l-.031.025c.183-.274.421-.78.7-.948.263-.159.645-.196.942-.216a5.216 5.216 0 0 1 1.156.044c.38.06.757.192 1.135.269.824.169 1.642.305 2.454.525.822.223 1.654.415 2.473.65Zm-28.523-6.162c.659.224 1.253.684 1.731 1.184.253.265.489.561.645.895.09.195.125.3.078.516l-.034.154c-.124.581-1.077 2.936-1.26 3.195-.281.395-.924 1.138-.369 1.584.54.434 1.104-.302 1.391-.692.647-.88 1.188-1.86 1.797-2.767.219-.326.405-.674.661-.97.172-.2.33-.411.49-.62.339-.447.628-.93.986-1.36.334-.403 1.073-1.07.871-1.66-.18-.521-.83-.633-1.295-.706-.552-.086-1.105-.09-1.654-.192-.562-.105-1.129-.173-1.694-.254-.771-.11-1.54-.185-2.304-.335-.375-.075-.751-.146-1.127-.221-2.007-.404-4.049-.656-6.063-1.029-2.146-.397-4.327-.63-6.455-1.13-1.137-.267-2.387-.678-3.575-.575-.254.023-.641.073-.606.416.03.285.339.37.487.565.263.344.495.888.465 1.32-.032.476-.082.942-.31 1.37-.2.374-.411.743-.626 1.11-.434.746-.852 1.494-1.31 2.225-.55.876-1.047 1.78-1.615 2.645-.77 1.175-1.569 2.323-2.282 3.533a371.222 371.222 0 0 1-3.89 6.457c-.534.864-6.39 10.081-7.01 10.717-.513.528-1.195.504-1.857.686-.265.073-.601.17-.661.488-.07.365.298.496.577.567.401.099.814.131 1.22.199.656.109 8.458 1.696 8.988 1.81.494.107 1.35.364 1.683.245.25-.09.35-.357.27-.609-.08-.26-.33-.403-.542-.544-.182-.12-.371-.235-.469-.437-.177-.362-.145-.823-.043-1.2.159-.586.425-1.174.724-1.702.339-.595.676-1.189 1.036-1.771.346-.559 1.221-2.013 1.27-2.079.08-.103.47-.71.602-.901.735-1.062 1.397-2.164 2.1-3.246.45-.692 1.834-2.655 2.051-2.957.352-.489.664-1.149 1.218-1.426.177-.088.473-.343.654-.374.184-.032.493.105.673.142.263.052.53.097.795.148.442.085.879.19 1.321.273.182.034.365.068.546.106l.231.049c.125.027.54.037.614.128.057.07.022.357.018.464a1.528 1.528 0 0 1-.076.435c-.107.325-.298.601-.456.9-.156.292-.782 1.427-.089 1.425.596 0 1.252-.724 1.607-1.138.307-.36.599-.743.874-1.13.345-.495.673-1.003.984-1.52.392-.639.85-1.293 1.027-2.033.113-.471.089-1.39-.583-.88-.537.407-.867 1.054-1.445 1.413l.051-.022c-.34.19-.653.423-.983.628l.027-.009c-.078.045-.154.098-.236.136-.221.106-.515.085-.757.074-.322-.014-.654-.108-.976-.161-.818-.133-1.886-.199-2.389-.948a15.83 15.83 0 0 1-.109-.167c-.087-.133-.123-.157-.071-.302.094-.261.312-.524.451-.765.194-.337.386-.674.562-1.02.365-.716.733-1.428 1.112-2.136.978-1.826 1.997-3.657 3.299-5.275a98.487 98.487 0 0 1 1.649-1.994c.124-.146.181-.247.362-.26.097-.008.201.01.299.012.485.014.959.032 1.439.11 1.602.261 3.18.623 4.753 1.032l-.068-.024c.201.06.402.12.6.185Zm49.391 31.846c.018-.139-.035-.273-.189-.306-.114-.024-.536-.617-1.31.404-.724.955-5.118 3.911-6.398 4.543-.738.365-1.496.688-2.271.966-.702.25-1.391.452-2.146.429-.691-.021-1.388-.135-2.068-.25-.856-.143-2.525-.402-2.497-.411-.338-.137-.885-.247-1.188-.567-.128-.135-.115-.575-.115-.756.001-.795.555-1.534.837-2.256.229-.587.554-1.127.845-1.684.397-.759 4.061-6.687 4.303-7.146.245-.465.52-.918.785-1.371.073-.124.134-.304.258-.34.126-.037.343.022.483.03.525.031 1.046.109 1.566.184.46.066.915.168 1.362.292.186.052.363.077.488.205.157.161.209.373.194.594-.03.482-.233 1.005-.385 1.462-.118.355-.273.694-.393 1.047-.114.333-.369.793-.201 1.138.175.358.583.302.855.1.592-.439.977-1.259 1.361-1.874.461-.736.935-1.461 1.4-2.193.764-1.202 1.704-2.33 2.317-3.621.132-.277.422-.843.262-1.154-.192-.372-.672-.055-.898.099-.8.54-1.343 1.351-2.057 1.985-.35.311-.789.594-1.249.699-.472.106-.936.002-1.4-.097-.598-.128-1.202-.226-1.803-.343a17.418 17.418 0 0 0-.991-.151c.792-1.142 4.38-6.022 5.374-7.352.447-.595.862-1.215 1.316-1.805.473-.614.911-1.279 1.428-1.857.268-.3 1.048-1.151 1.283-1.275.098-.053.7-.031.816-.044.154-.018.386.06.538.083.82.13 1.643.256 2.459.406.799.142 1.588.337 2.361.584 1.01.328 2.183.846 2.572 1.926.17.473.165.966.167 1.463.001.532-.047 1.056-.214 1.565-.265.811-.563 1.606-.774 2.435-.099.391-.885 2.091.009 2.061.508-.018.833-.694 1.12-1.027.308-.359.546-.776.766-1.206.427-.835 1.01-1.586 1.549-2.35.431-.612.824-1.274 1.216-1.912.445-.726.906-1.478 1.137-2.305.117-.417.219-.967-.13-1.303-.297-.286-2.638-.56-3.376-.686-.819-.138-1.635-.29-2.457-.412-.33-.05-7.746-1.361-8.734-1.559-.876-.175-6.15-1.377-6.588-1.525-.226-.075-.69-.313-.844.022a.536.536 0 0 0-.051.281c.015.025.057.169.09.22.122.188.32.58.341.704.037.229.052.456.03.687-.032.373-.222.572-.442.857-.426.549-.859 1.091-1.271 1.651-.925 1.256-1.766 2.567-2.642 3.856-.956 1.407-2.012 2.745-2.947 4.164-.693 1.053-1.315 2.169-1.925 3.27-.457.825-1.008 1.578-1.523 2.364-.41.635-.8 1.281-1.17 1.939-.442.777-.901 1.547-1.475 2.235-.362.435-3.314 5.303-3.625 5.926-.146.303-.306.598-.478.886-.187.304-.357.752-.705.906-.464.202-.934.39-1.41.564-.279.103-.599.176-.807.404-.292.318-.181.739.199.905.61.266 1.376.265 2.034.337.694.075 1.375.198 2.059.332 1.262.246 10.282 1.762 11.873 1.952.692.084 1.381.171 2.064.312.725.15 1.456.227 2.171.422.924.248 1.857.459 2.798.634.353.067.676.032.988-.166.301-.19.897-1.297 1.033-1.565.194-.38 1.253-2.62 1.672-3.313.484-.802 2.335-4.07 2.368-4.348ZM91.118 66.623c-.514 1.417-1.903 2.342-3.36 2.59-.526.089-1.002.033-1.525-.01-.42-.034-.848.004-1.262-.051-.435-.059-.87-.13-1.309-.16.774-.948 1.428-2.005 2.141-3 .594-.827 1.172-1.745 1.994-2.369.353-.267.923-.564 1.37-.502.523.073.966.202 1.402.506.443.31.73.693.8 1.235.076.602-.076 1.188-.25 1.761Zm-3.746 5.663a11.965 11.965 0 0 1-1.083 2.243c-.471.757-1.171 1.407-2.026 1.686-.816.265-1.787.348-2.639.278-.757-.063-1.494-.298-2.244-.414.663-1.354 1.444-2.684 2.258-3.953.417-.651.756-1.358 1.189-1.995.098-.144.17-.328.326-.354.117-.02.323.049.444.066a38.58 38.58 0 0 0 1.61.21c.546.059 1.294.056 1.715.453.517.487.635 1.114.45 1.78Zm7.63-6.534c-.042-.297-.085-.606-.23-.867a7.418 7.418 0 0 0-.484-.782c-.375-.511-1.01-.78-1.589-.985-.744-.263-4.455-.92-4.96-1.015-.573-.107-1.143-.224-1.717-.32-.751-.125-1.494-.287-2.25-.383-.298-.038-1.407-.311-1.07.262.027.046.073.083.103.141.043.078.063.18.093.265.045.123.092.246.14.367.117.3.164.464.01.757-.269.511-.688.964-1.038 1.42l-.645.839c-.37.484-.727.972-1.064 1.48-.55.83-1.163 1.61-1.718 2.435-.6.891-1.164 1.815-1.796 2.684-.537.737-1.115 1.445-1.65 2.183-.185.255-.348.527-.517.794-.292.46-.817.5-1.27.711-.194.09-.247.312-.043.429.102.058.302.072.418.091.424.07.853.1 1.277.16l.368.05c.045.006.112.002.152.021.101.049 1.547.297 1.802.344.236.044 2.024.326 2.248.363.288.045.576.1.86.165.876.206 1.733.437 2.623.574 1.27.195 2.584.5 3.876.455a10.133 10.133 0 0 0 1.568-.19c.277-.055.537-.142.762-.318.093-.073.322-.193.394-.288.07-.091.446-.537.6-.703.188-.201.289-.477.436-.71.221-.352.385-.773.522-1.161.449-1.269.681-2.58-.068-3.784-.297-.477-.715-.806-1.217-1.05.387-.01.816-.135 1.182-.235.693-.187 1.37-.53 1.968-.923 1.05-.691 2.115-1.92 1.923-3.276Zm18.591.91c.167-.095.32-.283.265-.485-.058-.21-.284-.188-.469-.233-.497-.117-1.888-.334-1.999-.37-.264-.088-.642-.125-.909-.2-.408-.116-.967-.25-1.392-.137-.367.098-.457.416-.182.711.32.345.898.38 1.262.678.533.436-.226 1.43-.454 1.894-.245.499-2.775 4.53-3.392 5.407-.564.804-1.089 1.623-1.753 2.352-.698.765-1.469 1.447-2.368 1.967-.8.464-1.891.96-2.818.571a1.963 1.963 0 0 1-.584-.394 7.403 7.403 0 0 1-.226-.223c-.074-.075-.2-.813-.16-.952.065-.231.134-.462.207-.691.266-.832.711-1.801 1.098-2.655.396-.875.808-1.75 1.254-2.601.583-1.113 1.23-2.194 1.856-3.284.189-.331.403-.645.612-.965.212-.325.422-.725.767-.931.395-.237 2.114-.315 1.653-1.141-.163-.292-.533-.337-.827-.405-.26-.06-.53-.097-.803-.165-.841-.209-1.713-.293-2.565-.451-.625-.116-1.215-.268-1.847-.345-.21-.026-.826-.186-.89.151-.015.086.03.154.017.24-.014.084.308.48.444.61.062.06.249.237.277.267.048.051.081.16.097.225.04.161.014.182-.079.333l.032-.04c-.624.93-1.202 1.891-1.732 2.878-.322.601-.62 1.214-.952 1.81-.25.452-.526.892-.76 1.353-.552 1.087-1.1 2.214-1.544 3.35-.246.627-.453 1.3-.372 1.98.08.662.423 1.228.92 1.66.427.372.913.655 1.422.9.328.158.658.234.981.383.255.117 1.038.32 1.16.33.174.014.346.055.522.065.35.02.747.083 1.096.046.679-.073 1.347-.123 1.976-.391 2.035-.867 4.355-3.668 5.612-6.083.388-.743.794-1.478 1.193-2.215.396-.732.873-1.417 1.234-2.17.156-.325.308-.65.462-.977l.265-.549c.061-.128.225-.507.34-.597.185-.145.585-.084.827-.13.426-.079.847-.164 1.226-.38v-.001Zm18.117 3.3c-.159-.421-.937-.434-1.298-.508-.583-.119-1.166-.24-1.755-.328a18.307 18.307 0 0 1-1.567-.284c-.4-.096-.798-.198-1.202-.275-1.603-.307-3.239-.443-4.844-.75l-1.222-.235c-.784-.153-1.567-.203-2.356-.3-.499-.062-.997-.128-1.496-.183-.213-.023-.425-.08-.626 0-.204.08-.405.248-.568.393a3.482 3.482 0 0 0-.517.602c-.164.23-.406.402-.585.633-.215.276-.581.928 0 1.043.3.061.623-.184.866-.33.238-.142.469-.295.697-.451.554-.379 1.069-.724 1.752-.77.628-.044 1.273.058 1.889.165.294.05.587.109.881.158.157.026.782.037.851.165-.096.433-.538.849-.815 1.185a24.42 24.42 0 0 0-1.021 1.342 104.8 104.8 0 0 0-1.897 2.757 74.115 74.115 0 0 0-1.702 2.661c-.204.336-.422.663-.628.997-.184.298-1.471 2.25-1.922 2.926-.298.445-.668.823-1.189.99-.384.12-.859.114-1.153.43-.426.454.061.82.502.916.532.116 1.097.138 1.638.182.937.078 1.878.2 2.802.378.683.132 1.359.298 2.045.416.367.063.726.179 1.095.234.516.078.963-.268.722-.817-.14-.317-.569-.579-.652-.904-.098-.382.177-.805.354-1.117.262-.462.554-.897.839-1.345.744-1.168 1.465-2.353 2.25-3.494.996-1.45 2.05-2.865 2.985-4.357.254-.406.522-.8.816-1.177.175-.223.354-.444.536-.661.087-.105.247-.403.383-.459.048-.02.131.014.19.028.296.07.594.13.891.194.459.1.907.203 1.371.268.262.036.519.099.768.189.208.077.248.151.254.378.01.432-.231.855-.286 1.283-.061.474.335.847.629.349.259-.439.542-.87.8-1.313.177-.304.646-.823.495-1.204Zm23.514 4.464c.095.23.143.459.162.707.017.22-.035.542.12.722.36.418.764-.322.952-.552.254-.31.884-.892.773-1.34-.06-.238-.271-.247-.471-.294-.271-.062-.535-.159-.804-.23-1.148-.298-11.942-1.968-13.049-2.125a12.337 12.337 0 0 1-.608-.094c-.041-.008-.133-.016-.175-.036-.046-.023-.566-.083-.696-.042-.203.065-.373.114-.415.357-.045.267.158.486.363.624.106.07.436.177.473.285.047.142-.186.522-.246.649-.135.29-.273.575-.393.872-.783 1.908-1.912 3.66-2.958 5.429-.297.502-.535 1.037-.84 1.533-.297.484-.589.97-.88 1.457-.254.424-.511.856-.798 1.257-.161.224-.692 1.11-.865 1.33-.203.256-.36.325-.674.4-.247.057-.501.117-.732.225-.421.198-.671.656-.141.888.459.201.988.262 1.469.397.344.097 5.147.719 5.174.737.203.123.445.077.545-.157.155-.363-.198-.646-.459-.827-.152-.105-.28-.145-.285-.323-.006-.213.259-.561.357-.744a61.045 61.045 0 0 1 1.914-3.293c.419-.68.831-1.36 1.239-2.045.105-.177.215-.351.327-.523.045-.07.114-.232.179-.274.1-.065.3.005.433.027.607.1 1.216.184 1.823.285.544.09 1.091.168 1.639.234.367.067-.218.86.083.998.315.145.574-.275.753-.464.208-.218 1.241-1.554.71-1.603-.321-.029-.513.31-1.204.263-.393-.027-.686-.096-1.074-.142-.885-.105-1.731-.33-2.587-.57.307-.473.628-.936.924-1.418l-.034.044c.531-.777 1.006-1.59 1.522-2.378.386-.589.907-1.716 1.72-1.725.272-.003 2.919.331 3.453.445.596.127 3.128.577 3.181.639.036.041.069.32.1.395Zm11.487 3.277c.511-.664 1.445-.503 2.165-.741.26-.086.594-.244.662-.54.036-.163-.031-.31-.142-.422-.047-.049-.143-.136-.218-.143-.089-.008-.546-.048-.701-.088-.19-.05-3.701-.52-4.585-.648-.814-.117-3.292-.631-3.743-.624-.128.003-.478-.095-.636 0-.073.067-.103.133-.078.095-.047.07-.064.113-.053.208.008.063.077.144.119.187.192.202.36.392.569.572.267.23.449.325.398.72-.052.407-.262.807-.447 1.166-.604 1.172-3.377 5.772-4.125 6.96-.331.526-1.872 3.206-2.199 3.516.117-.115-.091.062-.145.095-.112.07-.234.126-.353.183-.312.15-.637.243-.96.364-.295.11-1.429.441-.924.951.215.217 3.2.641 3.86.812.637.164 4.257.69 4.559.75.236.047.499.138.694-.068.441-.47-.339-.799-.629-1.007-.049-.035-.149-.088-.188-.141-.07-.094-.065-.082-.024-.214a3.57 3.57 0 0 1 .083-.246 5.56 5.56 0 0 1 .353-.734c.281-.51.537-1.032.841-1.528l-.028.03c.552-.81 2.196-3.713 2.552-4.317.507-.86.992-1.734 1.564-2.553.594-.85 1.126-1.774 1.759-2.594Zm7.886 4.972c.635-.964 1.157-1.983 1.833-2.922.28-.387.522-.799.79-1.194.087-.128.169-.259.266-.38.049-.06.227-.305.313-.34.198-.078.425-.03.969.19.51.17 1.085.51 1.339 1.02.257.517.147 1.188-.01 1.723-.115.391-.341.702-.574 1.028-.304.426-.619.828-.998 1.189-.225.213-.462.412-.698.611-.116.098-.231.195-.349.29-.066.052-.299.29-.379.284-.132-.009-.435-.332-.563-.412-.163-.102-.361-.26-.536-.34-.526-.239-1.011-.38-1.528-.56a2.24 2.24 0 0 0 .125-.187Zm7.641 10.288c.03-.168-.001-.394-.19-.45-.198-.056-.372.151-.473.292-.255.356-.262.78-.691 1.013-.328.178-.892.227-1.246.186-.438-.051-.692-.518-.848-.918-.6-1.527-.155-2.984-.194-4.553-.03-1.194-.404-2.324-.92-3.385a10.124 10.124 0 0 0 2.349-.501c.736-.26 1.503-.455 2.199-.819 1.153-.603 2.092-1.516 2.348-2.83l.016-.092c-.04.234.015-.1.017-.122.009-.068.013-.137.014-.206 0-.173-.019-.347-.056-.516a3.802 3.802 0 0 0-.429-1.123c-.38-.635-1.037-.975-1.709-1.223-.214-.08-.425-.157-.652-.19a25.106 25.106 0 0 1-.987-.181c-.732-.162-8.597-1.415-8.673-1.445-.151-.06-.301-.016-.458.026-.306.08-.236.329.017.459.252.13.546.192.805.32.149.072.297.08.287.246-.008.11-.118.275-.166.382-.128.29-.277.567-.431.844-.46.826-.979 1.624-1.486 2.42-.435.682-1.915 3.08-2.236 3.59-.297.474-2.518 4.289-2.977 5.028-.144.232-.29.46-.454.677a2.44 2.44 0 0 1-.494.484c-.127.092-.207.11-.358.185-.152.076-.481.215-.458.39.013.107.087.129.165.16.12.047.286.084.416.117.251.063.511.099.767.138.482.073 2.7.538 3.329.69.327.079 1.585.353 1.694-.075.068-.269-.239-.398-.365-.59-.164-.25-.193-.489-.128-.781.125-.564.533-1.043.815-1.537.977-1.717 2.133-3.358 3.273-4.967l.094-.132c.129-.185.129-.217.305-.082.277.213.523.51.645.846.27.74.114 1.576.062 2.342-.055.818-.058 1.631-.062 2.45-.003.778-.107 1.558-.058 2.334.049.77.25 1.545.724 2.158.436.564 1.063.959 1.704 1.25.721.327 1.452.367 2.229.224.682-.124 1.486-.345 2.022-.812.538-.467.772-1.048.902-1.72h.001Z" fill="#000"/><path fill-rule="evenodd" clip-rule="evenodd" d="M198.141 87c.332-.493.658-.984.961-1.496.144-.243.284-.491.417-.74.094-.175.161-.409-.069-.519-.234-.112-.332.1-.469.233-.195.193-.908.432-1.12.135-.092-.127-.071-.439-.084-.597-.026-.304-.051-.608-.103-.908-.128-.713-.35-1.415-.8-2-.245-.318-.963-.742-1.337-.892-.487-.195-1.774-.57-2.132-.626-.501-.08-1.458-.132-1.959-.044-.486.085-2.006.69-2.405 1.023-.806.675-1.257 1.552-1.428 2.579-.203 1.208-.011 2.465.377 3.62.374 1.115.783 2.281 1.13 3.365l.041.133c-.061-.183.002.012.01.043l.063.237c.039.155.075.31.099.467.043.294.044.587.013.88-.068.636-.209 1.248-.54 1.8-.291.486-.733.943-1.34.946-.677.003-1.142-.355-1.549-.86a7.508 7.508 0 0 1-1.427-2.963c-.219-.937-.221-1.93-.485-2.854-.062-.217-.132-.314-.35-.213-.141.066-.768 1.01-.862 1.12-.573.67-1.077 1.462-1.521 2.22-.141.243-.288.482-.437.72-.12.19-.189.395-.309.578-.087.132-.207.245-.147.417.096.272.366.19.543.075.227-.145.447-.303.671-.452.401-.266 1.027-.737 1.544-.659.18.028.635.707.805.918.2.25.339.614.491.9.24.446.562.87.875 1.268.189.24 1.007 1.089 1.155 1.159.316.148.65.301.976.423.992.37 2.192.25 3.222.13 1.085-.126 2.16-.663 2.771-1.58.661-.992 1.026-2.184.856-3.383-.083-.578-.299-1.116-.378-1.69-.088-.647-.257-1.275-.413-1.907-.293-1.186-.618-2.332-.772-3.544-.073-.574-.228-1.252-.096-1.825.128-.561.58-1.064 1.151-1.114.247-.022.63-.036.85.085.284.157.537.34.758.575.416.446.792.941 1.102 1.474.537.928.54 2.045.445 3.08-.029.314-.073.625-.093.94-.011.176-.067.418.01.579.171.362.568-.158.686-.343.195-.307.399-.61.603-.912Zm-9.105 3.14-.012-.039.012.038Zm29.219-5.374c-.036-.328-.364-.425-.635-.486-.438-.096-.879-.182-1.319-.27-.87-.176-4.945-.923-6.131-1.098-1.031-.153-4.9-.88-5.828-.932-.692-.04-1.382-.156-2.071-.232-.303-.034-.461.01-.723.175a2.738 2.738 0 0 0-.504.43c-.15.157-.332.472-.45.595-.136.143-.507.573-.605.744-.2.347-.297.56.067.72.342.15.757-.18 1.037-.352.375-.23.727-.494 1.098-.728.742-.47 1.494-.491 2.341-.396.403.045 2.321.292 2.49.399.181.114-.136.458-.246.607-.27.367-.576.704-.857 1.062-.521.664-1.001 1.369-1.477 2.065-.922 1.35-1.841 2.705-2.693 4.1-.156.256-.319.505-.482.756-.133.202-2.18 3.517-2.657 3.917a2.143 2.143 0 0 1-.881.44c-.32.078-.686.112-.94.348-.311.29-.22.676.14.849.344.165.774.171 1.146.21.776.08 4.539.785 5.698.99.461.082 1.514.424 1.817-.133.192-.355-.076-.722-.291-.982-.134-.162-.349-.327-.373-.54-.062-.536.349-1.074.618-1.52.201-.334.428-.653.637-.982.643-1.007 1.257-2.044 1.936-3.028.167-.242.331-.486.5-.725.444-.63.86-1.29 1.321-1.905.903-1.205 1.625-2.532 2.582-3.699l.392-.473c.028-.033.135-.2.187-.223.153-.065 2.619.506 2.96.599.36.099.547.145.525.551-.018.334-.178.68-.251 1.007-.057.256-.123.723.232.787.311.056.468-.42.591-.638.205-.37 1.09-1.669 1.099-2.009ZM213.14 98.87c0-1.132-1.224-1.907-2.339-1.737-1.014.154-2.014 1.677-.639 2.205.131.05.604.07.638.203.049.194-.478.382-.606.438-.46.203-.938.189-1.421.31-.174.043-.404.17-.285.375.092.158.452.265.617.324.435.156.897.227 1.359.211 1.355-.055 2.668-1.003 2.676-2.329Zm-18.001 35.51c-.894-.569-2.104-.295-2.889.322-.434.341-.806.76-.768 1.337.031.474.247.916.632 1.206.789.592 2.208.416 2.845-.305.596-.674 1.169-1.932.18-2.56Zm-.362-7.559c.016-.138-.037-.272-.19-.305-.115-.024-.536-.617-1.31.403-.724.955-5.118 3.911-6.398 4.543-.738.366-1.496.689-2.271.966-.702.25-1.391.452-2.146.43-.691-.022-1.388-.135-2.068-.25-.856-.144-2.525-.403-2.497-.412-.338-.136-.885-.247-1.188-.566-.129-.136-.115-.577-.115-.756.001-.796.554-1.535.837-2.258.229-.585.554-1.126.846-1.683.396-.759 4.06-6.687 4.302-7.146.245-.465.52-.917.786-1.371.072-.123.133-.303.256-.34.127-.037.344.023.484.03.525.031 1.045.11 1.566.185.46.065.915.167 1.362.291.186.052.363.077.488.205.157.161.209.373.194.594-.029.482-.233 1.005-.384 1.462-.118.355-.274.695-.395 1.048-.113.332-.368.792-.199 1.136.174.36.582.303.854.102.592-.439.977-1.259 1.362-1.874.46-.737.933-1.461 1.399-2.193.764-1.203 1.704-2.331 2.317-3.621.132-.278.421-.844.262-1.155-.191-.372-.672-.055-.898.099-.799.541-1.343 1.351-2.057 1.985-.35.311-.789.594-1.249.699-.472.106-.936.002-1.4-.097-.598-.127-1.203-.226-1.803-.342a16.567 16.567 0 0 0-.991-.151c.792-1.143 4.38-6.023 5.375-7.353.446-.595.861-1.214 1.315-1.804.473-.615.912-1.28 1.428-1.857.268-.301 1.048-1.151 1.282-1.276.099-.053.7-.031.817-.044.154-.017.386.06.538.084.82.128 1.643.255 2.46.404.798.143 1.587.338 2.359.585 1.011.328 2.184.846 2.573 1.926.17.473.165.966.167 1.463.001.532-.048 1.056-.214 1.565-.265.812-.563 1.607-.774 2.435-.099.392-.885 2.092.009 2.061.508-.018.833-.693 1.12-1.027.308-.358.546-.776.766-1.206.427-.835 1.01-1.585 1.549-2.35.432-.612.824-1.274 1.216-1.912.445-.726.906-1.478 1.137-2.304.117-.418.219-.968-.13-1.304-.297-.286-2.638-.56-3.376-.685-.819-.138-1.635-.291-2.457-.413-.331-.049-7.746-1.361-8.734-1.559-.876-.175-6.15-1.377-6.588-1.525-.226-.075-.689-.313-.844.022a.547.547 0 0 0-.051.281c.015.026.057.169.09.219.122.189.32.58.341.705.038.229.052.457.03.687-.032.374-.221.572-.442.857-.425.549-.859 1.092-1.271 1.651-.925 1.255-1.765 2.568-2.642 3.857-.956 1.406-2.013 2.745-2.947 4.164-.693 1.053-1.314 2.168-1.925 3.27-.457.824-1.008 1.577-1.523 2.364-.41.634-.8 1.28-1.17 1.938-.443.777-.901 1.547-1.475 2.236-.362.435-3.315 5.303-3.625 5.926-.149.301-.302.599-.478.885-.187.304-.357.752-.705.906-.464.202-.935.39-1.41.564-.279.103-.599.176-.807.404-.292.318-.181.739.199.905.609.267 1.376.265 2.034.337.694.075 1.375.198 2.059.332 1.262.247 10.282 1.762 11.873 1.952.692.084 1.381.171 2.064.313.725.15 1.456.226 2.171.421.924.248 1.857.459 2.798.634.353.067.676.032.988-.165.301-.19.897-1.298 1.033-1.566.194-.38 1.253-2.619 1.672-3.313.484-.801 2.335-4.069 2.368-4.347" fill="#000"/></g><defs><clipPath id="a"><path fill="#fff" transform="rotate(21.961 23.953 125.95)" d="M0 0h192.001v129.104H0z"/></clipPath></defs></svg>