<svg width="423" height="409" fill="none" xmlns="http://www.w3.org/2000/svg"><path fill-rule="evenodd" clip-rule="evenodd" d="M376.911 354.174c-17.642-31.003-41.305-59.71-64.071-87.055 6.727 1.841 15.603.406 21.735-2.645 6.89-3.427 10.378-9.389 13.165-16.278.396-.977 2.985-11.05 4.876-10.508 3.481 1.002 4.485 23.211 4.86 25.925 1.339 9.689 3.409 19.182 5.579 28.717 4.681 20.552 9.77 41.162 13.856 61.844Zm-75.344-105.243c-4.919.345-8.638-6.613-11.81-10.207 5.312-.205 27.981-6.475 30.691-1.063 4.401 8.804-14.397 10.943-18.881 11.27ZM190.95 81.111c-.021 2.937-.022 14.27-4.603 10.755-3.1-2.38-4.79-13.039-5.751-16.308-1.961-6.662-4.974-14.869-4.63-21.9.653-13.305 9.382-4.227 11.372 2.87 2.197 7.826 3.649 16.426 3.612 24.583Zm35.006 58.29c5.789-3.628 3.466 3.143 1.289 6.372-6.12 9.086-7.474-1.44-1.289-6.372Zm-13.039-31.118c-1.226-6.601-.618-15.559 1.267-21.87 1.48-4.957 6.215-9.574 9.12-3.24 2.412 5.258-2.151 19.08-4.583 24.253-1.976 4.207-4.693 7.782-5.804.857Zm-25.15 2.022c1.083 12.668-9.944 17.305-9.583 2.842.223-8.849 7.648-15.385 9.583-2.842Zm23.318 76.344c.34 5.257-10.707 23.648-11.503 13.5-.227-2.894 10.917-18.237 11.503-13.5ZM178.69 168.92c-3.78 2.451-14.162 10.638-18.091 8.982-6.279-2.649.891-10.072 3.681-11.981 3.047-2.087 11.4-7.197 15.601-6.556 7.705 1.18 2.705 6.785-1.191 9.555Zm-56.753-75.747c-9.373 3.995-12.668-7.165-14.692-13.83-1.323-4.359-5.998-13.475-1.087-16.587 8.826-5.6 18.677 23.192 15.779 30.417Zm31.066 1.313c-1.431-4.472-2.547-9.04-3.948-13.52-.835-2.664-5.201-12.046-4.675-14.276 1.664-7.075 7.379-3.542 10.702 1.645 3.41 5.325 6.975 16.434 6.616 22.543-.333 5.667-5.624 12.253-8.695 3.608Zm-17.289-47.03c-2.46-7.779 2.859-14.32 8.957-5.651 6.9 9.802-3.584 20.164-8.957 5.652Zm13.491 137.513c.358 7.115-23.763 17.84-29.215 14.562-7.178-4.314 7.563-9.682 11.661-11.812 3.461-1.796 16.544-10.906 17.554-2.75Zm-42.752-10.607c-6.121 1.723-12.396 4.117-18.692 4.981-8.647 1.184-8.574-3.669-2.104-8.768 5.655-4.456 16.23-5.533 22.978-8.231 5.391-2.156 21.029-14.505 24.93-10.681 8.792 8.616-21.333 21.015-27.112 22.699Zm1.633 27.729c.244 9.672-25.368 12.912-31.095 13.477 3.843-2.734 29.344-26.814 31.095-13.477Zm-48.47-48.768c-17.358-.578.081-13.215 5.932-15.549 4.246-1.697 14.239-5.466 18.559-1.913 11.336 9.324-20.026 17.632-24.49 17.462Zm1.971-35.348c.398-5.996 29.287-15.031 30.92-9.544 1.285 4.321-29.534 22.126-30.92 9.544Zm41.56 7.234c11.46-7.852 26.976-.474 9.793 8.631-3.372 1.784-12.198 6.603-15.938 3.856-5.283-3.879 3.109-10.529 6.145-12.487Zm316.164 26.398c-2.841-5.03-6.932-12.057-11.638-7.313-1.829 1.84-3.712 9.526-4.95 12.412-4.336 10.101-8.943 21.379-18.082 28.145-5.47 4.048-24.532 10.585-19.749-1.771 4.078-10.542 17.587-19.876 25.734-27.523 3.776-3.546 12.74-10.824 14.706-15.968 1.498-3.922-2.106-13.151-8.577-11.067-2.937.947-3.317 9.531-4.391 11.976-1.699 3.859-4.697 6.884-7.349 10.092-4.202 5.088-8.645 12.546-15.237 14.942-7.926 2.886-10.374-1.755-6.299-8.873 3.985-6.956 12.991-11.434 18.5-17.144 2.741-2.842 11.374-11.154 9.278-15.403-4.565-9.252-10.94 4.282-13.209 7.033-1.778 2.152-12.567 16.042-15.934 13.388-4.047-3.187 5.016-16.028 6.685-18.771 3.521-5.789 5.059-5.464.602-8.556-2.545-1.77-7.852-3.287-10.666-2.887-6.907.98-13.973 7.355-21.094 9.045-2.947.701-12.987.543-14.203 5.056-1.873 6.945 28.329 23.59 12.416 27.379-12.299 2.923-23.862-16.124-33.973-8.288-15.978 12.387 9.394 19.924 19.141 22.492 4.37 1.153 18.761 1.653 16.659 9.381-1.711 6.283-13.643 4.897-18.243 4.125-8.715-1.458-16.604-5.678-24.752-8.813-2.199-.843-11.037-5.638-13.688-4.606-3.796 1.485-8.396 16.309-6.185 19.804 2.726 4.303 17.705 2.802 22.769 2.912 8.558.182 19.052-.127 26.345 5.203 8.051 5.884-1.902 6.802-7.402 6.564-11.868-.516-23.981-4.713-35.611-6.988-4.056-.796-10.095-2.957-14.125-2.403-6.103.843-4.818 1.266-2.309 6.25 5.596 11.123 11.278 12.375 23.658 13.238 5.647.391 30.354-2.859 32.297 4.676-6.07 4.779-20.795 2.165-27.959 2.064-5.242-.076-13.738 1.132-18.296-1.402-6.205-3.458-14.052-16.351-18.601-21.526-8.07-9.179-16.013-18.312-24.845-26.794 9.637 1.367 18.663 4.421 28.425 2.009 10.672-2.639 20.901-9.769 22.477-21.24.576-4.198-.123-8.506-.423-12.692-.098-1.337-.033-2.711-.193-4.045-.699-5.798-.216-7.687-4.2-3.49-4.532 4.775-7.68 15.646-15.473 17.667-8.63 2.24-4.002-4.226-.494-8.002 8.663-9.325 18.139-17.438 19.573-31.245.782-7.53.344-15.794-1.017-23.303-1.309-7.218-2.612-6.998-5.052-1.085-5.295 12.825-13.55 23.391-24.524 31.967-2.103 1.645-6.82 5.67-9.995 3.392-2.874-2.06-.786-5.957-.004-8.903 1.723-6.507 4.204-12.539 6.649-18.794 3.22-8.24 8.823-19.356 9.052-28.23.149-5.763-4.52-8.238-8.644-11.849-4.822-4.225-9.148-8.726-12.888-13.946-2.606-3.636-5.416-9.091-9.341-11.48-6.093-3.712-4.727.918-4.268 5.548.369 3.7 5.718 40.23-2.95 38.353-8.601-1.86-4.98-36.242-6.173-43.788-1.583-9.998-15.467-8.64-23.868-10.466-4.43-.966-8.489-1.47-12.692-3.105-1.59-.618-3.395-3.316-5.182-2.503-4.06 1.843 12.311 16.88 8.057 22.208-7.182 8.997-14.428-14.763-16.484-19.096-1.728-3.645-3.791-7.914-6.214-11.083-3.744-4.892-4.25-3.711-9.76-2.071-5.511 1.64-18.671 1.499-22.832 5.142-4.024 3.524 1.111 6.109 3.899 9.313 2.64 3.032 11.198 13.322 3.985 15.454-2.605.77-12.058-6.922-14.506-8.504-5.198-3.36-4.077-2.595-8.441-1.493-5.071 1.277-10.779 2.917-15.657 4.645-6.118 2.167-7.575 3.196-2.99 7.58 5.377 5.134 13.428 8.227 16.076 15.574 1.288 3.173.44 6.722-3.567 6.785-4.275.07-6.22-5.766-7.866-8.894-2.084-3.958-5.996-13.268-11.07-14.1-3.17-.52-7.082 3.31-9.765 4.7-1.588.822-8.74 2.957-9.315 5.163-.632 2.422 7.616 7.674 9.853 10.257 5.706 6.59 11.77 14.732 13.928 22.663 1.666 12.948-13.325-2.785-15.689-6.712-2.622-4.354-11.036-26.866-18.568-24.586-2.052.622-3.319 5.62-4.997 7.256-2.056 2.003-4.696 2.81-7.164 4.053-3.66 1.846-7.322 3.69-10.829 5.776-1.083.644-4.03 2.518-4.617 2.942-.442.322-1.42.11-1.957.514-3.669 2.763-5.381 8.35-8.727 11.71-1.502 1.507-8.177 5.622-7.686 7.758.448 1.946 32.224 3.472 36.985 4 3.62.4 18.821-.234 20.678 3.303 1.815 3.46-1.258 4.678-4.247 5.824-7.42 2.843-16.768 3.516-24.576 4.913-5.515.986-28.104 2.391-31.03 7.873-3.021 5.66.652 9.535 4.867 10.311 4.615.854 11.279-1.094 15.789-1.745 3.673-.53 27.12-6.34 28.325-.934 1.31 5.882-26.72 10.817-29.495 11.563-5.304 1.427-14.253 1.682-18.933 4.407-4.193 2.447-2.627 2.731-1.462 6.748 4.025 13.882 5.455 11.168 17.729 8.049 4.698-1.195 10.733-3.33 15.217-.754 5.357 3.072 5.066 6.921.275 9.572-3.292 1.824-10.163 2.254-13.85 2.792-4.308.631-8.674.849-13.024.897-1.279.015-6.873-.914-8.092-.091-4.786 3.23 6.791 20.054 11.789 20.71 2.425.319 6.367-1.336 8.775-1.802 8.415-1.639 16.973-2.507 25.42-4.065 4.756-.876 27.025-7.388 23.036 4.147-2.206 6.371-18.315 9.584-23.658 11.404a233.951 233.951 0 0 1-15.545 4.706c-4.904 1.3-7.761.767-4.495 6.194 3.326 5.523 23.13 22.373 29.347 21.839 5.102-.441 3.206-2.8 8.93.604 2.1 1.253 4.232 3.314 6.054 4.935 6.999 6.215 14.194 15.182 23.965 16.92 20.887 3.719 49.41-24.227 62.895-37.207 2.68-2.578 12.92-15.227 17.904-12.4 5.238 2.968-3.849 14.779-5.654 17.045-10.058 12.641-22.592 24.773-37.484 31.349-3.968 1.75-15.082 3.43-18.841 6.522-3.728 3.064.086 4.051 4.043 6.658 8.44 5.554 19.722 13.747 30.095 10.343 13.657-4.483 20.986-18.808 28.623-30.052 4.237-6.234 24.088-35.69 24.351-12.593.127 11.498-7.159 24.66-14.996 32.567-1.465 1.476-10.939 6.197-10.74 7.32.303 1.704 5.982 2.435 7.019 2.658 10.052 2.162 40.244 5.108 44.478-7.835 2.904-8.88-.635-23.069-1.883-31.999-.389-2.774-2.332-7.231 1.655-8.114 5.106-1.131 9.484 16.709 9.866 19.536.787 5.812-.089 11.869-2.291 17.865-.969 2.634-3.623 4.987-.161 5.399 1.255.148 8.277-6.536 9.378-7.652 5.6-5.7 5.98-12.12 5.522-19.677-1.244-20.393-10.73-40.275-21.764-57.235 13.193 13.684 25.781 27.852 37.963 42.448 3.044 3.647 5.183 8.108 8.186 11.628 4.333 5.074 9.667 9.201 14.175 14.619-1.327-.134-12.82-3.23-13.153-.099-.302 2.849 9.445 7.262 11.442 8.317 8.989 4.76 12.526 5.176 19.592 13.796 17.584 21.456 33.65 43.7 49.387 66.522 7.691 11.154 15.791 22.144 22.563 33.892 3.398 5.892 6.124 12.182 8.708 18.465 1.777 4.321 4.009 17.365 9.547 18.75 6.438 1.612 4.861-5.474 3.554-8.814-2.95-7.527-5.094-14.856-7.193-22.713-3.413-12.779-5.983-25.766-9.713-38.472-4.655-15.856-8.489-31.842-12.328-47.907-2.492-10.427-4.633-21.029-6.237-31.634-1.101-7.283-.825-15.083-2.778-22.22 7.608 6.857 6.127 19.246 18.832 20.132 9.819.686 16.914-7.239 22.531-14.232 4.58-5.703 11.164-14.322 12.053-21.815 1.06-8.941-6.433-2.546-12.017-.609-3.604 1.252-13.539 6.968-16.504 3.555-4.148-4.776 10.652-10.983 13.513-12.802 6.294-3.996 13.273-8.852 18.067-14.709 1.893-2.315 9.736-27.452 1.034-24.037-1.104.433-2.641 3.947-3.532 5.183-4.13 5.73-8.823 10.9-13.887 15.812-5.52 5.351-17.57 17.944-26.773 15.217 3.73-11.294 19.348-17.182 27.791-24.587 5.425-4.756 10.122-10.011 13.348-16.531 1.603-3.244 5.681-12.33 3.725-15.778Z" fill="#02362C"/></svg>