<svg width="293" height="213" fill="none" xmlns="http://www.w3.org/2000/svg"><path fill-rule="evenodd" clip-rule="evenodd" d="M103.588 161.186c-1.121 1.859-.396 4.87-.1 6.861-.269-4.884 3.092-10.383 4.902-14.733 1.761-4.233 3.23-8.601 4.275-13.074.024-.097 2.231-10.08-1.014-8.173-9.022 5.247-3.201 21.774-8.063 29.119Zm-3.885-75.648c2.738 3.602 16.551 20.552 21.557 14.956 3.984-4.453-4.21-15.126-7.642-17.518C107.9 79 101.77 75.75 96.289 71.388c.614 5.1.117 9.844 3.414 14.15Zm145.655 2.874c4.413-.659 8.839-1.344 13.193-2.323-5.054.745-10.05 1.353-15.007 2.619l1.814-.296ZM11.547 169.667c-.925-2.335 4.225-6.287 5.437-7.573 3.322-3.53 6.74-7.455 7.33-12.125 1.084-3.665-7.496-1.76-10.088-2.199-1.818-.308-6.275-1.343-7.206-3.219-1.993-4.018 4.407-6.188 7.2-7.502 4.092-1.923 6.297-2.416 1.946-4.234-4.677-1.952-14.64-1.712-15.758-8.563-.951-5.836 8.832-8.259 12.716-9.153 7.318-1.69 13.84-.63 20.71 2.143 1.601.645 11.306 4.073 10.658 1.672-2.069-5.25-9.093-6.206-11.83-11.003-1.556-2.726-1.629-5.259-3.604-7.945-1.95-2.652-5.962-6.536-4.118-10.303 1.17-2.39 3.95-2.785 6.055-2.052 5.121 1.407 8.563 4.653 13.078 7.214 3.305 1.872 7.035 1.171 9.928 3.957 4.367 4.317 8.751 9.175 13.578 13.198 1.513 1.261 8.588 6.685 9.037 2.522.253-2.343-6.992-6.361-8.17-7.227-2.817-2.069-5.832-3.788-7.36-7.125-.876-1.912-.434-3.966-1.13-5.454-2.058-4.397-8.003-7.69-10.643-11.877-2.369-3.756-7.879-13.256-6.283-17.8 2.185-6.221 8.518.342 11.623 2.665 3.438 2.572 6.425 5.17 10.204 6.96 3.335 1.582 5.767 3.323 8.124 6.354 4.356 5.6 7.259 11.874 10.759 17.768a.555.555 0 0 1-.046-.055c2.098 3.387 5.082 6.937 8.684 8.863 6.038 3.227 4.245-.585 1.295-4.743-4.446-6.271-9.868-11.848-14.332-18.086-1.59-2.222-3.1-4.653-3.331-7.466-.155-1.886 1.046-3.4 1.087-4.77.147-4.763-14.444-31.233-4.478-32.85 5.38-.873 8.689 11.132 10.459 14.297 2.826 5.053 4.227 9.472 9.492 12.236-.492-2.258 1.4-3.85 1.113-5.818-.343-2.34-2.795-4.387-4.13-6.177-3.674-4.92-7.058-10.159-9.38-15.836-7.087-17.326 11.36-4.228 17.202.521 1.12.912 2.564 2.055 3.851 3.074 3.379 2.666 4.48 2.162 8.038 3.552 6.052 2.367 9.488 13.19 11.454 18.895.609 1.76 10.972 29.491 14.957 22.367 2.009-3.592-4.521-15.501-6.632-18.977-3.246-5.344-11.701-12.69-11.046-19.422.206-2.115 1.829-3.004 2.126-4.901.699-4.429-3.474-10.176-4.566-14.322-2.223-8.439 2.355-14.493 8.414-4.955 2.397 3.775 4.174 5.995 7.273 9.273 3.535 3.741 3.454 8.888 6.139 12.864 2.219 3.285 1.916.032 5.509 2.33 2.982 1.91 3.52 8.612 3.899 11.841.527 4.485.178 23.095 6.556 23.17 5.813.069 4.073-11.927 3.367-15.277-1.765-8.379-7.205-14.516-11.847-21.382-2.262-3.346-5.069-7.305-6.172-11.248-.965-3.456.168-6.072.583-9.404.483-3.879 1.373-21.71 9.644-15.982 5.556 3.847 3.582 13.606 8.526 17.889.531-4.6-2.333-16.575 4.105-18.63 6.216-1.983 9.378 11.098 10.934 15.432.953 2.659 3.088 18.272 6.35 19.956 3.406 1.757 4.482-2.759 5.348-5.224 1.484-4.214 13.14-42.912 19.929-38.703 5.266 3.263-4.216 15.193-2.183 18.656.746 1.274 2.082.25 3.409.712 4.862 1.696 5.746 4.164 3.522 9.018 12.956 1.79-1.049 12.912-5.562 16.766-3.074 2.626-16.463 13.614-10.018 18.726 2.167 1.718 8.221-.044 10.927.644 5.221 1.329 6.019 6.217 1.971 9.63-2.783 2.349-6.988 3.493-10.535 3.96-2.036.272-7.755-.502-9.148 1.131 7.645 4.267 1.147 6.37-4.465 8.475-4.197 1.574-15.204 5.17-15.222 11.18 6.91-.636 13.59-3.136 20.421-4.254 7.48-1.222 14.729-2.81 22.313-4.835 14.381-3.842 29.583-7.228 44.261-9.413 7.179-1.07 14.322-2.6 21.424-4.096 2.561-.542 15.666-5.697 16.718-.56 1.421 6.95-18.722 5.668-22.426 7.843-26.542 5.068-52.798 11.668-79.397 16.066 2.37.571 7.635 4.584 5.742 7.567 2.073.257 5.857-.407 7.452 1.207 3.524 3.573-1.241 3.045-1.924 4.759-1.165 2.93 4.967 3.578 7.228 4.244 10.542 3.096 20.822 8.577 30.61 13.549 5.37 2.729 17.127 15.546 6.644 19.287-5.232 1.868-13.12-2.275-17.549-4.573-2.794-1.449-9.578-7.122-13.031-6.623-.196 4.083 4.99 12.181 6.456 15.743 3.104 7.53 4.479 13.328.621 20.953-9.167 18.114-16.471-14.685-19.04-13.362-1.806.931.763 16.222.993 18.179.508 4.338.676 16.737-5.961 17.335-5.569.501-7.869-10.544-9.128-14.161-1.056-3.034-3.158-6.075-3.962-9.568-.663-2.873-.202-5.927-.791-8.733-.612-2.918-3.04-4.499-3.772-7.783-.826-3.685-.781-8.007-1.265-11.814-.809-6.362-1.564-15.133-7.408-19.271-4.653 10.696 2.162 23.898 4.439 34.42 1.138 5.262 2.811 11.654-1.173 15.951-1.601 1.725-.734-.622-2.482 1.921-.393.57-.521 1.581-.727 2.237-1.469 4.705-2.303 9.551-3.647 14.284-.833 2.935-2.679 12.843-6.466 13.68-6.869 1.518-7.459-22.886-8.064-27.495-.455-3.486-.354-7.297-.961-10.691-.555-3.116-2.516-5.209-2.182-8.76.432-4.599 2.322-9.125 3.266-13.627 1.27-6.056 1.242-11.737.499-17.84-.308-2.528-.688-8.447-3.644-8.96-4.75-.823-3.702 8.728-3.747 11.232-.133 7.415 1.815 15.578-.173 23.671-2.054 8.373 2.764 16.14 2.02 24.527-.269 3.03-.948 4.424-2.88 6.646-2.145 2.474-3.244 3.598-4.341 7.345-.994 3.396-4.789 20.373-10.785 15.372-1.946-1.622-.988-5.271-.932-7.375.121-4.636-.017-9.288.218-13.92.149-2.94 1.022-6.274.281-9.191-.703-2.767-2.236-4.196-1.882-7.371.475-4.274 3.72-9.207 3.411-13.378-.292-3.977-1.789-7.868-1.69-12.166.081-3.419 3.301-21.162.662-22.182-5.364-2.076-5.715 19.839-5.775 21.506-.388 10.629.774 21.963.006 32.656-.259 3.593-2.047 5.445-3.183 8.226-1.51 3.693-1.276 8.621-2.508 12.549-.982 3.132-3.552 11.319-7.506 7.092-2.859-3.054-1.95-11.396-2.417-15.383-.525-4.508-1.372-8.916-1.381-13.467-.002-.979.397-2.898.117-3.781-.783-2.442-3.871-2.953-4.683-5.815.684 2.906.527 5.28-.935 7.812-.38.662-1.831 1.512-2.421 2.277-1.782 2.306-2.68 5.729-3.87 8.388-1.677 3.733-12.602 21.083-13.41 8.348-.345-5.443.234-10.994 1.02-16.365.615-4.221 2.224-9.276 1.58-13.52-.67-4.399-1.599-5.682.31-10.375 1.963-4.824 5.79-11.005 4.654-16.377-2.315-10.945-11.919 15.29-12.77 18.18-1.721 5.838-3.962 11.925-8.177 16.443-4.7 5.04-10.278 8.219-14.154 14.148-1.728 2.645-6.708 11.71-10.975 8.982-4.202-2.686 1.394-12.81 2.426-15.764 1.066-3.051 2.712-6.263 3.464-9.357.68-2.809.22-5.531.696-8.378 1.347-8.074 7.885-11.751 11.455-18.487 1.884-3.557 1.5-6.009-3.107-3.848-2.488 1.164-4.465 4.227-6.47 6.147-3.016 2.888-6.268 5.566-9.408 8.322-4.24 3.717-27.646 24.827-32.09 13.496Z" fill="#89B99A"/></svg>