<svg width="24" height="24" fill="none" xmlns="http://www.w3.org/2000/svg"><path fill-rule="evenodd" clip-rule="evenodd" d="M13.49 3.003C9.974-.51 4.765-1.014 1.876 1.878-1.013 4.768-.508 9.978 3 13.49a10.606 10.606 0 0 0 3.153 2.164c.374-2.17 1.444-4.257 3.07-5.97a23.037 23.037 0 0 0-1.666-.511c-3.41-.936-5.106-3.782-5.502-7.118.328.394.626.807.923 1.219.577.8 1.15 1.594 1.929 2.234 1.21.997 2.538 1.381 3.992 1.802l.168.05a7.17 7.17 0 0 1 1.836.84c1.443-1.055 3.07-1.757 4.75-2.047a10.573 10.573 0 0 0-2.164-3.151ZM7.545 16.489c.224-2.173 1.277-4.299 2.964-5.986 3.515-3.512 8.724-4.019 11.613-1.125 2.89 2.89 2.387 8.1-1.126 11.613-1.688 1.688-3.813 2.74-5.987 2.965-.29.029-.576.044-.856.044-1.87 0-3.539-.655-4.769-1.886-1.416-1.414-2.07-3.412-1.839-5.625Zm5.14 1.784c1.153-.88 2.4-1.227 3.755-1.598 3.411-.936 5.105-3.781 5.502-7.117-.325.391-.62.802-.916 1.21-.578.803-1.154 1.6-1.935 2.243-1.214.998-2.546 1.383-4.006 1.806l-.155.045c-3.338.969-4.988 3.79-5.369 7.074.33-.395.63-.805.93-1.213.65-.886 1.293-1.761 2.195-2.45Z" fill="#0A775F"/></svg>