<svg width="30" height="25" fill="none" xmlns="http://www.w3.org/2000/svg"><path d="M30 2.96c-1.104.502-2.29.84-3.535.993A6.296 6.296 0 0 0 29.171.461a12.145 12.145 0 0 1-3.909 1.532A6.075 6.075 0 0 0 20.77 0c-3.974 0-6.894 3.802-5.996 7.748C9.66 7.486 5.125 4.973 2.089 1.155.476 3.99 1.252 7.702 3.993 9.58a6.014 6.014 0 0 1-2.787-.79c-.067 2.925 1.977 5.66 4.936 6.269a6.02 6.02 0 0 1-2.78.107c.783 2.508 3.056 4.332 5.75 4.383A12.156 12.156 0 0 1 0 22.165 17.112 17.112 0 0 0 9.435 25c11.428 0 17.884-9.897 17.494-18.773A12.713 12.713 0 0 0 30 2.96Z" fill="#333"/></svg>